<?xml version="1.0" encoding="UTF-8" standalone="no"?>
<!DOCTYPE svg PUBLIC "-//W3C//DTD SVG 1.1//EN" "http://www.w3.org/Graphics/SVG/1.1/DTD/svg11.dtd">
<svg width="100%" height="100%" viewBox="0 0 228 31" version="1.1" xmlns="http://www.w3.org/2000/svg" xmlns:xlink="http://www.w3.org/1999/xlink" xml:space="preserve" xmlns:serif="http://www.serif.com/" style="fill-rule:evenodd;clip-rule:evenodd;stroke-linejoin:round;stroke-miterlimit:2;">
    <path d="M47.884,22.268C47.224,22.268 46.663,22.037 46.202,21.575C45.74,21.113 45.509,20.552 45.509,19.893L45.509,10.393C45.509,9.733 45.74,9.172 46.202,8.71C46.663,8.249 47.224,8.018 47.884,8.018L59.719,8.018L59.719,9.621L47.884,9.621C47.673,9.621 47.488,9.7 47.33,9.858C47.185,10.004 47.112,10.182 47.112,10.393L47.112,19.893C47.112,20.104 47.185,20.289 47.33,20.447C47.488,20.592 47.673,20.665 47.884,20.665L59.719,20.665L59.719,22.268L47.884,22.268Z" style="fill:rgb(68,181,73);fill-rule:nonzero;"/>
    <path d="M68.077,22.268C67.417,22.268 66.856,22.037 66.394,21.575C65.932,21.113 65.702,20.552 65.702,19.893L65.702,10.393C65.702,9.733 65.932,9.172 66.394,8.71C66.856,8.249 67.417,8.018 68.077,8.018L77.576,8.018C78.236,8.018 78.797,8.249 79.259,8.71C79.721,9.172 79.951,9.733 79.951,10.393L79.951,19.893C79.951,20.552 79.721,21.113 79.259,21.575C78.797,22.037 78.236,22.268 77.576,22.268L68.077,22.268ZM68.077,20.665L77.576,20.665C77.787,20.665 77.966,20.592 78.111,20.447C78.269,20.289 78.348,20.104 78.348,19.893L78.348,10.393C78.348,10.182 78.269,10.004 78.111,9.858C77.966,9.7 77.787,9.621 77.576,9.621L68.077,9.621C67.865,9.621 67.681,9.7 67.522,9.858C67.377,10.004 67.305,10.182 67.305,10.393L67.305,19.893C67.305,20.104 67.377,20.289 67.522,20.447C67.681,20.592 67.865,20.665 68.077,20.665Z" style="fill:rgb(68,181,73);"/>
    <path d="M86.07,15.336L86.07,22.268L87.673,22.268L87.673,16.944L93.67,16.964L98.123,22.268L100.24,22.268L100.24,22.248L95.767,16.964L97.945,16.964C98.604,16.964 99.165,16.733 99.627,16.271C100.089,15.796 100.319,15.235 100.319,14.589L100.319,10.413C100.319,9.766 100.089,9.212 99.627,8.75C99.165,8.275 98.604,8.037 97.945,8.037L86.07,8.037L86.07,9.64L94.4,9.64L94.4,9.641L97.945,9.641C98.156,9.641 98.334,9.72 98.479,9.878C98.624,10.023 98.697,10.201 98.697,10.413L98.697,14.589C98.697,14.8 98.624,14.978 98.479,15.123C98.334,15.268 98.156,15.341 97.945,15.341L88.445,15.341C88.415,15.341 88.386,15.339 88.358,15.336L86.07,15.336Z" style="fill:rgb(68,181,73);fill-rule:nonzero;"/>
    <path d="M106.419,22.268L106.419,14.329L108.022,14.329L108.022,14.331L117.186,14.331L117.186,15.954L108.022,15.954L108.022,20.665L119.422,20.665L119.422,22.268L106.419,22.268Z" style="fill:rgb(68,181,73);fill-rule:nonzero;"/>
    <path d="M113.439,9.619L106.419,9.619L106.419,8.018L119.422,8.018L119.422,9.621L113.439,9.621L113.439,9.619Z" style="fill:rgb(68,181,73);fill-rule:nonzero;"/>
    <path d="M140.462,9.621L140.462,22.268L142.065,22.268L142.065,9.621L148.379,9.621L148.379,8.018L134.129,8.018L134.129,9.621L140.462,9.621Z" style="fill:rgb(68,181,73);fill-rule:nonzero;"/>
    <path d="M156.153,22.268C155.493,22.268 154.932,22.037 154.471,21.575C154.009,21.113 153.778,20.552 153.778,19.893L153.778,10.393C153.778,9.733 154.009,9.172 154.471,8.71C154.932,8.249 155.493,8.018 156.153,8.018L165.653,8.018C166.313,8.018 166.873,8.249 167.335,8.71C167.797,9.172 168.028,9.733 168.028,10.393L168.028,19.893C168.028,20.552 167.797,21.113 167.335,21.575C166.873,22.037 166.313,22.268 165.653,22.268L156.153,22.268ZM156.153,20.665L165.653,20.665C165.864,20.665 166.042,20.592 166.187,20.447C166.346,20.289 166.425,20.104 166.425,19.893L166.425,10.393C166.425,10.182 166.346,10.004 166.187,9.858C166.042,9.7 165.864,9.621 165.653,9.621L156.153,9.621C155.942,9.621 155.757,9.7 155.599,9.858C155.454,10.004 155.381,10.182 155.381,10.393L155.381,19.893C155.381,20.104 155.454,20.289 155.599,20.447C155.757,20.592 155.942,20.665 156.153,20.665Z" style="fill:rgb(68,181,73);"/>
    <path d="M174.186,8.018L174.186,22.268L175.808,22.268L175.808,15.954L180.4,15.954L185.704,22.268L187.782,22.268L187.782,22.248L181.805,15.143L187.763,8.037L187.763,8.018L185.704,8.018L180.4,14.331L175.808,14.331L175.808,8.018L174.186,8.018Z" style="fill:rgb(68,181,73);fill-rule:nonzero;"/>
    <path d="M193.935,8.018L206.938,8.018L206.938,9.621L201.717,9.621L201.717,9.619L193.935,9.619L193.935,8.018Z" style="fill:rgb(68,181,73);fill-rule:nonzero;"/>
    <path d="M193.935,14.329L193.935,22.268L206.938,22.268L206.938,20.665L195.538,20.665L195.538,15.954L204.702,15.954L204.702,14.331L195.538,14.331L195.538,14.329L193.935,14.329Z" style="fill:rgb(68,181,73);fill-rule:nonzero;"/>
    <path d="M215.204,8.018L213.007,8.018L213.007,22.268L214.61,22.268L214.61,9.839L225.06,22.268L227.257,22.268L227.257,8.018L225.654,8.018L225.654,20.447L215.204,8.018Z" style="fill:rgb(68,181,73);fill-rule:nonzero;"/>
    <path d="M15.817,25.138C21.376,25.138 25.883,20.663 25.883,15.143C25.883,9.622 21.376,5.147 15.817,5.147C10.258,5.147 5.751,9.622 5.751,15.143C5.751,20.663 10.258,25.138 15.817,25.138Z" style="fill:rgb(68,181,73);fill-rule:nonzero;"/>
    <path d="M25.301,26.748C19.414,31.571 10.714,31.235 5.219,25.74C-0.634,19.887 -0.634,10.398 5.219,4.545C10.714,-0.95 19.414,-1.286 25.301,3.537L23.556,5.282C18.637,1.411 11.49,1.744 6.954,6.28C2.059,11.175 2.059,19.111 6.954,24.006C11.49,28.542 18.637,28.874 23.556,25.004L25.301,26.748Z" style="fill:rgb(68,181,73);fill-rule:nonzero;"/>
    <path d="M27.423,24.627C31.931,19.124 31.931,11.162 27.423,5.658L25.678,7.403C29.242,11.933 29.242,18.353 25.678,22.882L27.423,24.627Z" style="fill:rgb(68,181,73);fill-rule:nonzero;"/>
</svg>
