<svg xmlns="http://www.w3.org/2000/svg" viewBox="0 0 836.55 102.5" width="270" height="33">
    <defs>
        <style>.cls-1{fill:#44b549;}</style>
    </defs>
    <g id="Layer_2">
        <g id="Layer_1-2">
            <g id="Layer_2-2">
                <g id="Layer_1-2-2">
                    <path class="cls-1"
                          d="M69.33,87.78c-.73.36-1.51.7-2.26,1A40.47,40.47,0,0,1,53.85,91.9v10.59a51.44,51.44,0,0,0,20.77-5.56Z"/>
                    <path class="cls-1"
                          d="M48.6,102.5V91.91a40.47,40.47,0,0,1-13.22-3.12c-.75-.31-1.49-.65-2.21-1L27.88,97A51,51,0,0,0,48.6,102.5Z"/>
                    <path class="cls-1"
                          d="M85.11,73.86A40.37,40.37,0,0,1,80,80.06a41.88,41.88,0,0,1-6.28,5.15l5.33,9.13A51.82,51.82,0,0,0,94.28,79.15Z"/>
                    <path class="cls-1"
                          d="M14.84,69.53c-.35-.73-.82-1.68-1.14-2.41a40.2,40.2,0,0,1-3.11-13.23H0A51.58,51.58,0,0,0,5.58,74.74Z"/>
                    <path class="cls-1"
                          d="M33.17,14.76c.72-.36,1.46-.69,2.21-1a41.14,41.14,0,0,1,13.38-3.12L48.74,0A51.64,51.64,0,0,0,27.88,5.59Z"/>
                    <path class="cls-1"
                          d="M53.7.05v10.6a41.11,41.11,0,0,1,13.38,3.1c.75.31,1.48.65,2.21,1l5.29-9.17A51.86,51.86,0,0,0,53.7.05Z"/>
                    <path class="cls-1"
                          d="M0,48.65H10.59a40,40,0,0,1,3.13-13.23c.31-.74.76-1.63,1.12-2.34l-9.27-5A50.54,50.54,0,0,0,0,48.65Z"/>
                    <path class="cls-1"
                          d="M102.45,53.89H91.86a40.2,40.2,0,0,1-3.11,13.23c-.32.75-.67,1.48-1,2.2l9.17,5.3A50.83,50.83,0,0,0,102.45,53.89Z"/>
                    <path class="cls-1"
                          d="M28.63,85.16A41.19,41.19,0,0,1,17.37,73.9L8.15,79.11A51.77,51.77,0,0,0,23.34,94.34Z"/>
                    <path class="cls-1"
                          d="M17.09,29.08a45.82,45.82,0,0,1,5.35-6.6,40.13,40.13,0,0,1,6.19-5.08L23.34,8.22A55.29,55.29,0,0,0,7.66,24Z"/>
                    <path class="cls-1"
                          d="M87.73,33.2c.36.72.7,1.48,1,2.22a40.26,40.26,0,0,1,3.11,13.23h10.59A50.73,50.73,0,0,0,96.93,28Z"/>
                    <path class="cls-1"
                          d="M73.82,17.4a41.06,41.06,0,0,1,11.3,11.3l9.18-5.28A51.55,51.55,0,0,0,79.11,8.22Z"/>
                    <circle class="cls-1" cx="51.23" cy="51.27" r="37.05"/>
                    <path class="cls-1"
                          d="M154.24,31h34.52a7.2,7.2,0,0,1,2.34.45,9.37,9.37,0,0,1,2.37,1.23,7.15,7.15,0,0,1,1.83,1.89A4.39,4.39,0,0,1,196,37v7.21h-5.56V37c0-.47-.37-.85-1.08-1.17a9.49,9.49,0,0,0-2-.67H155.63a9.49,9.49,0,0,0-2,.67c-.72.33-1.07.7-1.07,1.17v29.2a.85.85,0,0,0,.37.63,7.34,7.34,0,0,0,.86.6,3.77,3.77,0,0,0,1,.44,2.54,2.54,0,0,0,.82.16h31.86a3.16,3.16,0,0,0,.8-.16,4.06,4.06,0,0,0,1-.44,6.48,6.48,0,0,0,.85-.6.86.86,0,0,0,.39-.63V59H196v7.26a4.81,4.81,0,0,1-.7,2.56,6.71,6.71,0,0,1-1.74,1.86,7.9,7.9,0,0,1-2.34,1.17,8.19,8.19,0,0,1-2.5.42H154.24a8.19,8.19,0,0,1-2.5-.42,7.9,7.9,0,0,1-2.34-1.17,6.43,6.43,0,0,1-1.74-1.86,4.72,4.72,0,0,1-.69-2.56V37a4.33,4.33,0,0,1,.72-2.44,7.08,7.08,0,0,1,1.85-1.89,9.05,9.05,0,0,1,2.37-1.23A7.09,7.09,0,0,1,154.24,31Z"/>
                    <path class="cls-1"
                          d="M276.2,31.48a9.37,9.37,0,0,1,2.37,1.23,7.15,7.15,0,0,1,1.83,1.89,4.42,4.42,0,0,1,.73,2.44v29.2a4.64,4.64,0,0,1-.7,2.56,6.43,6.43,0,0,1-1.74,1.86,7.9,7.9,0,0,1-2.34,1.17,8.08,8.08,0,0,1-2.49.42H239.21a8.19,8.19,0,0,1-2.5-.42,7.67,7.67,0,0,1-2.34-1.17,6.71,6.71,0,0,1-1.74-1.86,4.72,4.72,0,0,1-.69-2.56V37a4.33,4.33,0,0,1,.72-2.44,7.23,7.23,0,0,1,1.85-1.89,9.05,9.05,0,0,1,2.37-1.23,7.2,7.2,0,0,1,2.34-.45h34.64A7.2,7.2,0,0,1,276.2,31.48Zm-37.62,4.39c-.72.33-1.08.7-1.08,1.17v29.2a.89.89,0,0,0,.38.63,7.34,7.34,0,0,0,.86.6,3.92,3.92,0,0,0,1,.44,2.54,2.54,0,0,0,.82.16h32a2.92,2.92,0,0,0,.78-.16,4.3,4.3,0,0,0,1-.44,7.23,7.23,0,0,0,.85-.6.85.85,0,0,0,.38-.64V37c0-.47-.36-.85-1.08-1.17a9.41,9.41,0,0,0-2-.67H240.6A9.58,9.58,0,0,0,238.58,35.87Z"/>
                    <path class="cls-1"
                          d="M322.42,72.26H317V49.94h39.9a3.8,3.8,0,0,0,1.05-.23,6.38,6.38,0,0,0,2.34-1.35,1.25,1.25,0,0,0,.47-.89V37c0-.47-.36-.85-1.07-1.17a9.69,9.69,0,0,0-2-.67H317V31h41.79a7.26,7.26,0,0,1,2.35.45,9.37,9.37,0,0,1,2.37,1.23,7.15,7.15,0,0,1,1.83,1.89,4.42,4.42,0,0,1,.73,2.44V48.48a2.14,2.14,0,0,1-.44,1.34,8.23,8.23,0,0,1-.95,1c-.34.29-.67.54-1,.75s-.44.36-.44.45.14.23.44.44a8.22,8.22,0,0,1,1,.82,7.83,7.83,0,0,1,.95,1.2,3,3,0,0,1,.44,1.58V72.26h-5.57V56.51a1.3,1.3,0,0,0-.41-.88,4,4,0,0,0-1-.79,5.38,5.38,0,0,0-1.2-.54,3.7,3.7,0,0,0-1-.19H322.42Z"/>
                    <path class="cls-1" d="M402,31h45.16v4.18H402Zm41.35,18.91v4.11h-36v14h39.77v4.18H402V49.94Z"/>
                    <path class="cls-1" d="M527.84,34.41h-14.5V30.64H546.7v3.77H532.21V71.9h-4.35Z"/>
                    <path class="cls-1"
                          d="M532.41,72.11h-4.77V34.62h-14.5V30.44h33.78v4.19H532.43Zm-4.35-.41h4V34.21h14.5V30.86h-33v3.35h14.5Z"/>
                    <path class="cls-1"
                          d="M578.91,51.27c0-12,9.2-21,21.69-21s21.63,8.9,21.63,21-9.25,21-21.63,21S578.91,63.3,578.91,51.27Zm39,0c0-9.84-7.36-17.09-17.27-17.09s-17.4,7.25-17.4,17.09,7.43,17.09,17.4,17.09,17.28-7.24,17.28-17.09Z"/>
                    <path class="cls-1"
                          d="M600.6,72.46a22.28,22.28,0,0,1-15.68-6,20.86,20.86,0,0,1-6.22-15.15,20.86,20.86,0,0,1,6.22-15.15,23.3,23.3,0,0,1,31.28,0,20.9,20.9,0,0,1,6.24,15.17,20.88,20.88,0,0,1-6.23,15.17A22.21,22.21,0,0,1,600.6,72.46Zm0-42a21.89,21.89,0,0,0-15.39,5.93,20.41,20.41,0,0,0-6.1,14.85,20.43,20.43,0,0,0,6.1,14.85,22.89,22.89,0,0,0,30.71,0A20.45,20.45,0,0,0,622,51.27a20.43,20.43,0,0,0-6.11-14.87A21.84,21.84,0,0,0,600.6,30.49Zm0,38.08A17.74,17.74,0,0,1,588,63.66a17.13,17.13,0,0,1-5-12.38,17.13,17.13,0,0,1,5-12.38A17.74,17.74,0,0,1,600.6,34a17.54,17.54,0,0,1,12.5,4.91,17.26,17.26,0,0,1,5,12.38,17.22,17.22,0,0,1-5,12.38,17.62,17.62,0,0,1-12.5,4.92Zm0-34.19a17.39,17.39,0,0,0-12.29,4.8,16.74,16.74,0,0,0-4.89,12.09,16.71,16.71,0,0,0,4.9,12.09,18,18,0,0,0,24.49,0,16.8,16.8,0,0,0,4.86-12.09,16.8,16.8,0,0,0-4.86-12.09,17.22,17.22,0,0,0-12.21-4.8Z"/>
                    <path class="cls-1"
                          d="M674.3,52.52l-8.42,8.55V71.91h-4.35V30.64h4.35V55.57L690.1,30.64h5L677.26,49.33l19.1,22.57h-5.19Z"/>
                    <path class="cls-1"
                          d="M696.79,72.11h-5.72L691,72,674.28,52.81l-8.21,8.33v11H661.3V30.44h4.77V55.07L690,30.44h5.58l-18.06,18.9Zm-5.53-.41h4.64L677,49.32l17.65-18.47h-4.44L665.67,56.08V30.85h-3.95V71.7h3.95V61l.06-.06,8.58-8.7Z"/>
                    <path class="cls-1"
                          d="M762.1,68.13V71.9H732.92V30.64h28.29v3.77H737.28V49.09h21.34V52.8H737.28V68.13Z"/>
                    <path class="cls-1"
                          d="M762.3,72.11H732.71V30.44h28.71v4.19H737.49V48.89h21.33V53H737.49V67.91H762.3Zm-29.18-.41h28.77V68.35H737.08V52.63h21.34v-3.3H737.08V34.21H761V30.86H733.12Z"/>
                    <path class="cls-1"
                          d="M836.33,30.64V71.9h-3.6L806.22,38.42V71.9h-4.35V30.64h3.6l26.58,33.48V30.64Z"/>
                    <path class="cls-1"
                          d="M836.54,72.11h-3.89l-.06-.08L806.43,39v33.1h-4.77V30.44h3.89l.06.08,26.22,33V30.44h4.72Zm-3.71-.41h3.29V30.85h-3.89V64.71L805.34,30.85h-3.29V71.7h4V37.83l.37.46Z"/>
                </g>
            </g>
        </g>
    </g>
</svg>