<svg xmlns="http://www.w3.org/2000/svg" width="100" height="100" viewBox="0 0 749.76 846.26">
  <defs>
    <style>
      .cls-1{fill:#3398c3;}.cls-2,.cls-3{fill:#4a70ab;}.cls-3{stroke:#4a70ab;stroke-miterlimit:2.61;stroke-width:1.17px;}
    </style>
  </defs>
  <g id="Layer_2">
    <g id="Layer_1-2">
      <path class="cls-1"
            d="M138.78,428.74C114.24,336.1,155.54,239.23,208.33,194c52.43-47.55,101.58-54.94,100.58-55.58,1.19,1.41-47.54,9.89-98.63,57.64-51.54,45.55-90.76,141.14-65.89,231.31C168,526.86,266.08,604.59,368.12,606.11c6.14.09,6,7.56.09,7.47-105.79-1.7-205.94-81.11-229.43-184.84ZM379.71,606C483.52,601.64,579.55,530.34,604,427.33c24.89-90.17-14.34-185.76-65.88-231.31-51.09-47.75-99.82-56.22-98.63-57.64-1,.64,48.14,8,100.58,55.58,52.79,45.27,94.08,142.14,69.54,234.78C585.33,535.93,487.73,608.66,380.21,613.4c-6.17.27-5.6-7.25-.5-7.45Z"/>
      <path class="cls-1"
            d="M314.43,569.39c-4.86-11.71-17.73-18.09-22.56-20.13-.86,5.63-2.55,21.94,4.51,33.3v0c4.9,7.89,17.73,15.66,22.81,18.52a64.66,64.66,0,0,0-4.76-31.71ZM431.9,143.48c6.33,2.18,13.34-.27,16.61-1.71-2.57-3-8.62-9-15.68-10.25h0c-4.84-.82-12.24,1.27-16,2.5a38.08,38.08,0,0,0,15,9.46Zm36.29-19.21c-2.87-8.54-11.46-13.84-15.25-15.83-1,4.57-2.71,16,1.75,24.47,3.09,5.85,11.61,12,15.52,14.62a48.57,48.57,0,0,0-2-23.26Zm-35.06,45.34c4.11,1.2,14,3.33,22-.83h0a48.73,48.73,0,0,0,17.61-15.32c-4.65-.84-15-2.31-21.34-.25-9.1,3-15.78,12.46-18.24,16.4Zm75.93-26.08c-1.39-9.13-9.13-16-12.56-18.66-1.78,4.38-5.62,15.63-2.61,25,2.08,6.44,9.59,14.17,13.05,17.49a49.41,49.41,0,0,0,2.12-23.8ZM465.7,182.89c3.88,1.92,13.46,5.87,22.29,3.09a49.45,49.45,0,0,0,20.45-12.33c-4.51-1.65-14.75-5-21.45-4.05-9.7,1.39-18.13,9.77-21.29,13.29ZM546.61,170c.24-9.49-6.4-17.81-9.36-21.05-2.55,4.06-8.45,14.73-7.07,24.7h0c1,6.89,7.18,16,10.07,20A50.63,50.63,0,0,0,546.61,170ZM496,201.87c3.55,2.62,12.52,8.32,21.91,7.09a50.57,50.57,0,0,0,22.8-8.81c-4.21-2.45-14-7.68-20.9-7.9-10-.33-20,6.65-23.81,9.62Zm83.27,1.06c1.92-9.54-3.31-19.11-5.71-22.87-3.25,3.59-11.14,13.31-11.52,23.61-.26,7.11,4.4,17.45,6.6,21.9a51.87,51.87,0,0,0,10.63-22.64Zm-56.62,23c3.08,3.24,11.11,10.61,20.81,11A51.51,51.51,0,0,0,568,232.18c-3.78-3.19-12.71-10.22-19.67-11.69-10.06-2.11-21.38,3.18-25.69,5.49Zm83.3,15.55c3.63-9.28,0-19.88-1.71-24.05-3.89,3-13.59,11.4-15.8,21.72-1.54,7.15,1.35,18.45,2.77,23.25a52.84,52.84,0,0,0,14.74-20.92Zm-61.07,13.09c2.51,3.79,9.27,12.68,19,14.84a52.57,52.57,0,0,0,25.58-.53c-3.22-3.85-11-12.56-17.73-15.27-9.78-3.93-22.14-.59-26.85,1Zm80.49,29.8c5.32-8.72,3.57-20.05,2.56-24.54-4.45,2.34-15.73,9.07-19.8,19.07-2.82,6.94-1.89,18.85-1.33,23.92a53.7,53.7,0,0,0,18.57-18.45Zm-63.75,2.3c1.83,4.23,7.08,14.42,16.49,18.33a53.89,53.89,0,0,0,25.87,4c-2.52-4.43-8.79-14.6-15.14-18.55-9.17-5.7-22.25-4.51-27.22-3.78Zm75.26,43.57c6.93-7.86,7.15-19.63,6.93-24.28-4.85,1.54-17.46,6.32-23.34,15.69-4.08,6.5-5.26,18.72-5.58,23.87a54.8,54.8,0,0,0,22-15.28Zm-64.54-9.05c1.06,4.53,4.53,15.78,13.36,21.42A54.85,54.85,0,0,0,611,351.27c-1.74-4.88-6.26-16.28-12-21.4-8.24-7.38-21.67-8.49-26.75-8.63Zm67.9,55.94c8.37-6.69,10.67-18.54,11.26-23.24-5.08.68-18.68,3.23-26.3,11.65-5.27,5.83-8.61,18-9.84,23.07a56.16,56.16,0,0,0,24.88-11.48Zm-63.32-20.6c.27,4.75,1.75,16.72,9.64,24a56.16,56.16,0,0,0,24,13.17c-.87-5.18-3.39-17.51-8.25-23.69-7-8.93-20.36-12.41-25.4-13.44Zm58.68,66.55c9.65-5.27,14.06-16.84,15.48-21.43-5.24-.22-19.39-.07-28.56,7.06-6.35,4.94-11.89,16.6-14,21.48a57,57,0,0,0,27.11-7.11Zm-60-32c-.56,4.8-1.21,17.14,5.44,25.84a57.5,57.5,0,0,0,21.86,17.54c0-5.33-.28-18.24-4.08-25.35-5.47-10.24-18.36-16.12-23.22-18ZM623,467.59c10.68-3.6,17.16-14.51,19.38-18.84-5.18-1.15-19.49-3.55-30,2-7.28,3.85-14.94,14.65-17.93,19.17A58.42,58.42,0,0,0,623,467.59ZM568.3,424.71c-1.41,4.66-4.3,17,.88,27h0a58.35,58.35,0,0,0,18.92,21.52c1-5.34,3-18.41.39-26.25-3.71-11.3-15.67-19.5-20.19-22.28Zm34.5,84.83c11.4-1.72,19.88-11.57,22.87-15.52-5-2.07-19-7.06-30.58-3.32-8,2.59-17.69,12.14-21.48,16.13a59.49,59.49,0,0,0,29.19,2.71Zm-47.36-52.85c-2.24,4.43-7.38,16.37-3.94,27.37a59.77,59.77,0,0,0,15.26,25c1.92-5.14,6.27-18,5.06-26.38-1.72-12.07-12.35-22.46-16.38-26Zm19.76,90.95c11.83.3,22.13-8.18,25.81-11.61-4.59-2.92-17.84-10.47-30.21-8.76-8.56,1.18-20,9.12-24.5,12.44a60.77,60.77,0,0,0,28.9,7.93ZM537,486c-3,4-10.36,15.14-8.83,26.86h0a60.75,60.75,0,0,0,10.92,27.91c2.84-4.81,9.52-17,9.81-25.67.39-12.46-8.51-24.84-11.9-29.1Zm4.36,94.58c11.86,2.39,23.75-4.34,28-7.13-4.06-3.73-16.07-13.72-28.85-14.19-8.85-.33-21.81,5.66-26.87,8.18a62,62,0,0,0,27.69,13.14Zm-27.49-68.78c-3.73,3.48-13.13,13.41-13.67,25.48a62.08,62.08,0,0,0,6.07,30.07c3.66-4.3,12.61-15.44,14.41-24.12,2.63-12.5-4.16-26.57-6.81-31.43ZM502.08,607.1c11.55,4.52,24.75-.18,29.51-2.21-3.4-4.45-13.73-16.69-26.52-19.43-8.89-1.91-23.05,1.83-28.54,3.47a63.24,63.24,0,0,0,25.55,18.17ZM486.68,533c-4.34,2.82-15.62,11.14-18.31,23.23a63.4,63.4,0,0,0,.8,31.35c4.41-3.64,15.43-13.28,18.81-21.72,4.86-12.14.5-27.54-1.3-32.86Zm-27.86,93.48c10.83,6.6,25,4.19,30.11,3-2.62-5-10.85-19.22-23.25-24.27-8.62-3.5-23.57-2.23-29.35-1.56a64.63,64.63,0,0,0,22.49,22.85Zm-2.32-77.25c-4.83,2-17.7,8.41-22.57,20.13a64.62,64.62,0,0,0-4.75,31.71c5.07-2.86,17.91-10.62,22.82-18.54,7.06-11.36,5.37-27.67,4.5-33.3ZM299.87,141.77c3.26,1.44,10.27,3.89,16.6,1.71a38.08,38.08,0,0,0,15-9.46c-3.73-1.23-11.14-3.32-16-2.5h0c-7.06,1.21-13.11,7.3-15.67,10.25Zm-4.44-33.33c-3.79,2-12.38,7.29-15.25,15.83a48.74,48.74,0,0,0-2,23.26c3.93-2.62,12.45-8.78,15.53-14.62,4.47-8.45,2.72-19.9,1.75-24.47Zm-2.16,60.34c8,4.16,17.87,2,22,.83-2.45-3.94-9.13-13.42-18.22-16.4-6.3-2.06-16.69-.59-21.34.25a48.58,48.58,0,0,0,17.6,15.32Zm-41.39-43.91c-3.44,2.65-11.17,9.53-12.56,18.66a49.63,49.63,0,0,0,2.11,23.79c3.47-3.31,11-11,13-17.48,3-9.34-.82-20.59-2.6-25Zm8.5,61.11c8.83,2.78,18.42-1.17,22.29-3.09-3.15-3.52-11.58-11.9-21.29-13.29-6.7-1-16.94,2.4-21.45,4.05A49.53,49.53,0,0,0,260.38,186Zm-49.25-37c-3,3.24-9.6,11.56-9.37,21.05a50.6,50.6,0,0,0,6.37,23.61c2.87-3.92,9.11-13.07,10.06-20h0c1.39-10-4.51-20.64-7.06-24.7Zm19.35,60c9.4,1.23,18.37-4.47,21.92-7.09-3.79-3-13.79-10-23.81-9.62-6.93.22-16.69,5.45-20.9,7.9A50.57,50.57,0,0,0,230.48,209Zm-55.65-28.9c-2.4,3.75-7.62,13.33-5.7,22.87a51.65,51.65,0,0,0,10.62,22.64c2.2-4.45,6.87-14.79,6.61-21.9-.38-10.3-8.27-20-11.53-23.61Zm30.1,57c9.71-.43,17.74-7.8,20.81-11-4.3-2.31-15.62-7.6-25.68-5.48-7,1.46-15.89,8.49-19.67,11.69A51.65,51.65,0,0,0,204.93,237Zm-60.78-19.54c-1.74,4.17-5.33,14.77-1.69,24.05a52.58,52.58,0,0,0,14.73,20.92c1.41-4.8,4.31-16.1,2.77-23.25-2.21-10.32-11.91-18.71-15.81-21.72Zm40.36,52c9.72-2.16,16.5-11,19-14.84-4.7-1.55-17.06-4.89-26.84-1-6.77,2.71-14.52,11.42-17.73,15.27a52.57,52.57,0,0,0,25.58.53Zm-64-9.58c-1,4.49-2.76,15.83,2.56,24.54a53.87,53.87,0,0,0,18.57,18.45c.56-5.06,1.49-17-1.33-23.92-4.06-10-15.34-16.73-19.8-19.07Zm49.82,45.17c9.42-3.91,14.66-14.1,16.5-18.33-5-.73-18.06-1.92-27.22,3.78-6.35,3.94-12.62,14.12-15.15,18.55a53.87,53.87,0,0,0,25.87-4Zm-65.68,1c-.23,4.65,0,16.41,6.91,24.28a55,55,0,0,0,22,15.28c-.32-5.15-1.5-17.37-5.58-23.87C122,312.32,109.43,307.55,104.6,306Zm58.1,36.65c8.82-5.64,12.29-16.89,13.36-21.42-5.09.15-18.53,1.25-26.75,8.63-5.74,5.13-10.24,16.55-12,21.4a54.85,54.85,0,0,0,25.36-8.61ZM96.9,353.94c.59,4.7,2.88,16.55,11.26,23.24A56.11,56.11,0,0,0,133,388.66c-1.23-5.09-4.58-17.24-9.85-23.07-7.62-8.42-21.21-11-26.29-11.65Zm64.94,26.6c7.88-7.24,9.36-19.21,9.64-24-5,1-18.4,4.51-25.41,13.44-4.85,6.18-7.37,18.51-8.25,23.69a56.18,56.18,0,0,0,24-13.17ZM97.32,401.71c1.42,4.58,5.82,16.15,15.47,21.42a57.18,57.18,0,0,0,27.11,7.12c-2.13-4.89-7.68-16.55-14-21.49h0c-9.16-7.13-23.31-7.28-28.55-7.05ZM167.38,417c6.65-8.7,6-21.05,5.43-25.85-4.85,1.92-17.73,7.8-23.21,18-3.81,7.1-4.13,20-4.1,25.35A57.27,57.27,0,0,0,167.38,417ZM106,448.75c2.22,4.33,8.71,15.24,19.37,18.84A58.42,58.42,0,0,0,154,469.94c-3-4.52-10.65-15.32-17.93-19.17-10.52-5.56-24.83-3.17-30-2Zm73.17,3c5.2-10,2.3-22.35.89-27-4.53,2.78-16.49,11-20.19,22.28-2.57,7.84-.59,20.92.39,26.25a58.26,58.26,0,0,0,18.91-21.52ZM122.71,494c3,4,11.46,13.8,22.86,15.52a59.25,59.25,0,0,0,29.18-2.72c-3.78-4-13.44-13.54-21.47-16.12C141.69,487,127.68,492,122.71,494Zm74.15-10c3.46-11-1.68-22.95-3.93-27.37-4,3.55-14.65,13.94-16.38,26-1.2,8.38,3.14,21.24,5.06,26.38a59.5,59.5,0,0,0,15.25-25Zm-49.48,52c3.67,3.43,14,11.91,25.79,11.61a60.77,60.77,0,0,0,28.9-7.93c-4.48-3.32-15.94-11.26-24.49-12.44-12.37-1.71-25.62,5.84-30.2,8.76Zm72.84-23.13c1.53-11.73-5.81-22.86-8.82-26.86-3.4,4.26-12.3,16.64-11.9,29.1.28,8.63,7,20.86,9.8,25.67a60.64,60.64,0,0,0,10.92-27.91ZM179,573.49c4.28,2.79,16.18,9.52,28,7.13a62,62,0,0,0,27.69-13.14c-5.06-2.52-18-8.51-26.88-8.19-12.77.48-24.78,10.47-28.85,14.2Zm69.2-36.17c-.55-12.08-9.94-22-13.67-25.48-2.66,4.86-9.45,18.93-6.83,31.43,1.82,8.68,10.76,19.83,14.42,24.12a62.05,62.05,0,0,0,6.08-30.07Zm-31.41,67.57c4.76,2,18,6.73,29.51,2.21a63.19,63.19,0,0,0,25.54-18.17c-5.49-1.64-19.65-5.38-28.53-3.47-12.8,2.74-23.13,15-26.52,19.43ZM280,556.26c-2.69-12.1-14-20.41-18.31-23.23-1.8,5.32-6.17,20.71-1.3,32.85,3.37,8.44,14.39,18.09,18.81,21.72a63.35,63.35,0,0,0,.8-31.34Zm-20.56,73.23c5.12,1.21,19.27,3.62,30.11-3a64.63,64.63,0,0,0,22.49-22.85c-5.77-.67-20.74-1.94-29.35,1.56-12.42,5-20.64,19.23-23.25,24.27Z"/>
      <path class="cls-2"
            d="M374.19,200.49A171.94,171.94,0,1,1,252.6,250.85a171.38,171.38,0,0,1,121.59-50.36Zm91.25,31.8c-2.51-.74-5-1.39-7.51-2a175.16,175.16,0,0,1,21.86,12.47,168.43,168.43,0,0,0-14.35-10.49Zm46.85,45.83c-1.83-2.16-3.71-4.28-5.63-6.34a23.64,23.64,0,0,1-6.7,8.06q5.51,7.44,10.26,15.39a180.43,180.43,0,0,1,23.11,62,51,51,0,0,0,6.92-4.61,166.15,166.15,0,0,0-28-74.5Zm28.52,80a58.59,58.59,0,0,1-6.71,4.07,172.52,172.52,0,0,1-6.53,77,166.54,166.54,0,0,0,13.85-66.72q0-7.24-.61-14.35ZM507.05,474a187.88,187.88,0,0,0,11.3-23.18c-12.23,3.92-26.85,6.19-43.19,6.73a190.93,190.93,0,0,1-13.06,27.76,149.53,149.53,0,0,1-23.29,30.78,152.38,152.38,0,0,0,26.13-3.18A168.35,168.35,0,0,0,507.05,474Zm-53.4,45.61A183.67,183.67,0,0,1,433.7,521a118.27,118.27,0,0,1-18.26,13.57,166.16,166.16,0,0,0,38.21-14.92ZM398,538a108.59,108.59,0,0,0,28.48-17c-6.7-.11-13.65-.53-20.78-1.23A320.11,320.11,0,0,1,365.14,513c-7,9.46-14.45,17.34-22.25,23.18l-.63.47A168.56,168.56,0,0,0,398,538Zm-62.08-2.72c1.4-.89,2.78-1.86,4.15-2.88a105.61,105.61,0,0,0,20.12-20.6q-4.86-1.2-9.77-2.56l.33-.22-.86-3a13.12,13.12,0,0,1-.41-2c4.6,1.31,9.2,2.51,13.75,3.61a224.34,224.34,0,0,0,16.7-27.8c1.81-.06,3.61-.16,5.4-.32a242.06,242.06,0,0,1-17.18,29.27,311.3,311.3,0,0,0,38,6.22,241.94,241.94,0,0,0,25.7,1.24A142,142,0,0,0,458,483a183.64,183.64,0,0,0,12.06-25.27q-7.24.07-14.89-.28c-7.12-.32-14.48-.95-22-1.86a47.72,47.72,0,0,0,2.67-4.43q10.05,1.14,19.57,1.58c5.66.27,11.15.34,16.47.24A239.43,239.43,0,0,0,485.2,385.8c.24-4.21.38-8.44.43-12.66-1.51.06-3,.1-4.55.13A240.52,240.52,0,0,1,441,370.32a47.76,47.76,0,0,0,2.51-4.39A233.74,233.74,0,0,0,481,368.55c1.55,0,3.08-.07,4.6-.13-.25-27.44-4.84-54.78-13.88-79.32a132.46,132.46,0,0,1-35.06-2.21q-.44,5.21-1,10.59c-1.27-3.45-2.5-7-3.64-10.47l.09-1-.44-.09q-.81-2.6-1.52-5.19l2.34.53c1.37-18.85,1.24-35.31-.55-47.77l.45-1.31-.63.13c-.21-1.39-.45-2.73-.71-4-.72.4-1.43.81-2.14,1.25a83.4,83.4,0,0,0-7.09,4.79c-12.14,3.47-18.31,12.1-21.77,20.75q-1.74,2-3.46,4.06c-1.14-1.68-2.49-2.5-4.21-2.26,10.57-12.83,21.35-23.21,32-30.07-23.12.51-45.19,7-65.51,17.83.87.85,1.76,1.7,2.69,2.55a124.67,124.67,0,0,0,22.77,16,25.51,25.51,0,0,0-2.33,4.09,129.27,129.27,0,0,1-23.6-16.58c-1.34-1.21-2.62-2.44-3.82-3.67A188.52,188.52,0,0,0,335,259.75q-.84-2.4-1.62-4.67a193.19,193.19,0,0,1,17.85-11.68c-5.79-6.71-9.48-13.55-10.58-20.07a169.05,169.05,0,0,0-72.36,39.3c3.51,10.83,11.31,22.23,22.54,33.39,4.51-5.56,9.26-10.94,14.22-16.08.14,1.44.34,2.81.55,4.06-2.84,1.2-4.77,3.74-5.83,7.2a20.61,20.61,0,0,0-.51,2.09c-1.7,2-3.38,4-5,6,1,.93,2,1.85,3,2.77.63.57,1.28,1.13,1.94,1.7a53.23,53.23,0,0,0,1.61,7.5c-2.32-1.87-4.56-3.77-6.69-5.67-1-.86-1.91-1.72-2.84-2.58l-1.63,2.12a256.92,256.92,0,0,0-38.26,71.11q3.59,3.06,7.48,6.08a298,298,0,0,0,51.85,31.75c2.49-7.41,5.2-14.94,8.09-22.53a26.41,26.41,0,0,0,2.78,2.32l1.07.77c-2.74,7.24-5.31,14.43-7.68,21.49a394.51,394.51,0,0,0,40.81,16.52,15.48,15.48,0,0,1-2.92,4,401.11,401.11,0,0,1-39.38-16c-2.28,7-4.37,13.87-6.22,20.54-1.56-.39-3.08-.79-4.53-1.18,1.93-7,4.1-14.11,6.48-21.4A302.7,302.7,0,0,1,256,386.08q-3.19-2.47-6.18-5-.74,2.29-1.41,4.6c-6.73,22.73-9.38,45.24-7.11,65.47a226.2,226.2,0,0,0,21.44,15.16,300.26,300.26,0,0,0,30.82,16.82l.1-.75a10.77,10.77,0,0,0,3.95,2.49,9.93,9.93,0,0,0,4.14,6.81l.23.45c-1.51-.65-3-1.32-4.49-2a102.59,102.59,0,0,0-.2,20c.54,5.18,1.66,9.43,3.39,12.57a166.07,166.07,0,0,0,35.21,12.57Zm42-250.89-1.25,1.9c-1.77-.73-3.75-.29-6,1.73l-1.07,1.53a40.86,40.86,0,0,0-2.72,12.38q-1.67,2.82-3.33,5.69c-1-1.27-2.1-2.55-3.2-3.82,6.26-10.78,12.76-21,19.4-30.37a67.64,67.64,0,0,0-1.85,11Zm-83.65,235a50.14,50.14,0,0,1-1.67-8.76,111.53,111.53,0,0,1,.39-22.52,305.52,305.52,0,0,1-32.76-17.77c-6.41-4-12.41-8.18-18-12.41a93.81,93.81,0,0,0,9.5,28.45q2.05,2.19,4.18,4.33a167.58,167.58,0,0,0,38.33,28.68Zm-52.84-45.24a109.82,109.82,0,0,1-4.58-20.5,162,162,0,0,1-15.21-14.06c.61,1.87,1.24,3.73,1.91,5.57a166.38,166.38,0,0,0,17.88,29Zm-32.28-74.57q-.42-6-.42-12.13a174.47,174.47,0,0,1,6.61-47.68,63.84,63.84,0,0,1-3.28-8.45,168.69,168.69,0,0,0-2.91,68.26Zm5.7-78a46.82,46.82,0,0,0,2.65,11.2,174.19,174.19,0,0,1,42.23-68.45c1.07-1.07,2.16-2.12,3.26-3.17a42.93,42.93,0,0,1-1.46-12.27q-2.87,2.61-5.59,5.34a167.14,167.14,0,0,0-41.09,67.35Zm51.91-77.26a34.68,34.68,0,0,0,.21,13.18,173.6,173.6,0,0,1,73.37-38.93,21.89,21.89,0,0,1,.7-4.77,20.7,20.7,0,0,1,2.56-5.75,166.4,166.4,0,0,0-76.84,36.27Zm113.59-39a188,188,0,0,1,37.72,10.93c-2.15-1.45-4.35-2.84-6.62-4.14h0l-.3-.17h0a76.79,76.79,0,0,0-8.06-4.23,168,168,0,0,0-22.72-2.38Zm38.89,6q4.39,2.87,8.51,6.1a26,26,0,0,0-1.52-2.89c-.29-.47-.59-.91-.89-1.32l.06,0c-2-.66-4.09-1.27-6.16-1.85ZM432,215.49a45.18,45.18,0,0,1,2,5.48l.71.22A52.41,52.41,0,0,1,440.8,219q-4.32-1.87-8.77-3.52ZM448,222.33A36.93,36.93,0,0,0,444,223q3.78.47,7.59,1.15c-1.21-.64-2.44-1.25-3.66-1.86Zm-2.72,7.59a192.62,192.62,0,0,1,51.87,46.17,18.08,18.08,0,0,0,6-8,170,170,0,0,0-48.89-34.31c-2.95-1.37-5.93-2.66-9-3.86Zm-226.65,199a135.71,135.71,0,0,0,17.6,18c-1.46-19.6,1.34-41,7.71-62.53q1-3.3,2.06-6.6c-11.89-10.48-21.19-21.25-27.36-31.84A170.94,170.94,0,0,0,216,416.87q1.07,6.11,2.56,12Zm1.8-89.52c5.5,11,14.81,22.37,27.22,33.52A262.58,262.58,0,0,1,286,302.28l2-2.54c-11.21-11.09-19.24-22.51-23.32-33.57-.51.49-1,1-1.5,1.48a169.23,169.23,0,0,0-42.7,71.74Zm124.78-122a174.69,174.69,0,0,1,37.7-4.09c4.54,0,9.06.17,13.53.52a183.9,183.9,0,0,0-45.95-6.71,18.82,18.82,0,0,0-2.8,3.33,15.81,15.81,0,0,0-2,4.54,16.25,16.25,0,0,0-.45,2.41Zm74.68,4.7a170.58,170.58,0,0,0-74.57.13c.9,6,4.47,12.41,10.19,18.83l.2-.11c20-10.79,41.68-17.57,64.39-18.75l-.21-.1ZM529.63,364.3c-10.72,4.69-24.08,7.59-39.28,8.59q0,6.6-.44,13.17a244.94,244.94,0,0,1-13,66.72c16.81-.7,31.62-3.29,43.67-7.68a170.28,170.28,0,0,0,10.52-56.94,167.28,167.28,0,0,0-1.46-23.86Zm-39.29,3.87c15.12-1,28.26-4,38.57-8.7a175.45,175.45,0,0,0-22.74-61.82q-4.69-7.83-10.14-15.19a53.68,53.68,0,0,1-18,5.89l-1.42.21c8.94,24.71,13.5,52.12,13.78,79.61Zm2.8-89.49a187.39,187.39,0,0,0-45.22-41.5,168.23,168.23,0,0,1,26.19,44.92c.26.64.51,1.29.75,1.93.81-.1,1.61-.22,2.38-.34a49.92,49.92,0,0,0,15.9-5ZM470,284.51l-.25-.65c-8.06-20.13-19.2-38.17-33.49-52.54,2,13.22,2.25,30.77.81,50.83A129.75,129.75,0,0,0,470,284.51Z"/>
      <path class="cls-2"
            d="M462.09,397.71l2.3,7.49c-5.52-3.3-13.18-4.84-19.13-1.33-6.45,3.81-7.54,14.08-7.88,24.06-1.51,42.5-45.36,52.36-80.62,46.1,0,0-15,19.09-10.91,33.18,0,0-5.34,3.75-8-2.39,0,0-10.45,1.25-10.79-5.56,0,0-5.91,2.39-10.57-5.69,0,0-9.65,1.6-11.36-4.76,0,0-4.09-1.37-3.41-7.28,0,0-6.59-.1-6.59-6.47,0,0-6.13-2.05-3.86-9.78,0,0-6.62-5.78-1.05-10.91,0,0-9.43-5.56-4.66-15.33,0,0,35.67,12.95,52.94,9.31s21.36-14.53,21.36-14.53,2.26-9.55-1.14-13.41c-2.82-3.19-40.59-19.13-18.64-20.45,0,0-36.58-18.51-10.23-14.31-9.3-5.2-37.68-40.67-12.27-27.95.15.07-30.56-40.58-4.09-30-13.12-17.73-13.77-42.83-2.73-40-1.46-2.33-5.48-28.19,6.93-27.27-1.53-8.32-2.84-21.48,6-22.27,0,0,13.4,48.4,27,61.58s23.63,30.9,23.63,30.9-7.27-24.09-.91-39.54c4.54-4.08,4.15,10.57,6.87,12.61,3.18,2.39-2.9-33.2,11.59-42.26,3.63-2.27-.45,12.72,4.78,16.14s.22-34.54,29.3-40c-18.5,53.18,45.26,98.33,3.63,140-3.63,3.18-1.72,7.18,2.94,7.27,3.1,0,8-7.34,18.8-6.64,6.76.43,12.64,8.5,10.67,19.5Z"/>
      <path class="cls-2"
            d="M70.48,563.62l21.84-11.57a38,38,0,0,0,5.43-3.4,13.39,13.39,0,0,0,3.12-3.18h0a7.86,7.86,0,0,0,1.23-3.42,12.39,12.39,0,0,0-.3-4.29l1.09-.4,9.68,18.25-.94.66a12.36,12.36,0,0,0-3.39-2.65,7.9,7.9,0,0,0-3.53-.92,13.89,13.89,0,0,0-4.39.81,37.15,37.15,0,0,0-5.86,2.59L65.05,571.69,63.55,579l-1.08.15L52.05,559.48l.74-.81,6.75,2.79,24.65-26.1-35.81,5.07-1.48,7.14-1.08.16L35.69,528.62l.74-.8,6.87,2.85L82,510.14l1.43-7.25,1.08-.15L94,520.68l-.74.8-6.79-2.86L55.68,535,98,529l.41-.05.19.36,1.37,2.58.19.36-.28.31L70.48,563.62ZM22.64,498.68a24.87,24.87,0,0,1-2.09-9.61,20,20,0,0,1,2.13-8.91A25,25,0,0,1,29.43,472a46.24,46.24,0,0,1,11.16-6.45,41.7,41.7,0,0,1,11.79-3.2,25.94,25.94,0,0,1,10.41.94A19.52,19.52,0,0,1,70.63,468a27,27,0,0,1,7.51,17.86A19.62,19.62,0,0,1,76,494.67h0a25.46,25.46,0,0,1-6.71,8.13,43.36,43.36,0,0,1-10.84,6.32,43.59,43.59,0,0,1-12.08,3.33,25.63,25.63,0,0,1-10.48-.91,19.37,19.37,0,0,1-7.73-4.63,25.62,25.62,0,0,1-5.5-8.22Zm4.45-1.43a10.17,10.17,0,0,0,2.21,3.31h0a11.27,11.27,0,0,0,3.43,2.32h0a12.23,12.23,0,0,0,3.86,1,20.16,20.16,0,0,0,4.72-.17,40,40,0,0,0,5.87-1.41q3.28-1,7.19-2.67a62.88,62.88,0,0,0,9.4-4.77,25.37,25.37,0,0,0,5.91-4.9h0a12,12,0,0,0,1.72-2.75,12.6,12.6,0,0,0,.93-3.18,12.17,12.17,0,0,0,.09-3.29,11,11,0,0,0-.79-3.07h0a10.57,10.57,0,0,0-2.24-3.37,11.36,11.36,0,0,0-3.44-2.34h0q-3.3-1.5-8.59-.74a54.06,54.06,0,0,0-12.79,3.89h0c-2,.86-3.87,1.7-5.48,2.5s-3,1.61-4.27,2.39h0a30.13,30.13,0,0,0-3.29,2.42h0A21.23,21.23,0,0,0,29,484.91v0a12.1,12.1,0,0,0-1.72,2.76,12.27,12.27,0,0,0-.92,3.16,12,12,0,0,0-.08,3.27,11.44,11.44,0,0,0,.8,3.13Zm19.4-79.59-25.43,3.93A39.69,39.69,0,0,0,14.84,423a13.31,13.31,0,0,0-3.93,1.93,8.16,8.16,0,0,0-2.28,2.81A14.13,14.13,0,0,0,7.37,432H6.21L3.05,411.6l1.1-.34a14.25,14.25,0,0,0,2.49,3.68,8.2,8.2,0,0,0,3,2,13.26,13.26,0,0,0,4.33.65,40.6,40.6,0,0,0,6.38-.53l38-5.88.58-.09.09.58,1,6.73.06.35-.29.21-39.1,28.49,26.77-4.14a39.79,39.79,0,0,0,6.22-1.41A13.42,13.42,0,0,0,57.61,440h0a8.17,8.17,0,0,0,2.26-2.83,13.9,13.9,0,0,0,1.26-4.26h1.15l3.16,20.43-1.1.35a14,14,0,0,0-2.52-3.7,8.09,8.09,0,0,0-3-2h0a13.42,13.42,0,0,0-4.3-.65,37.89,37.89,0,0,0-6.34.53h0L15.28,453l-3.8,6.38-1.08-.22-3.34-21.6L8,437l5.41,4.81,33.06-24.14ZM.93,357.6a74.3,74.3,0,0,0,7,3.14,51.09,51.09,0,0,0,6.38,2l.09,1.1c-1.2.51-2.22,1-3.06,1.4a16.47,16.47,0,0,0-2,1.14,7.06,7.06,0,0,0-2.63,3.29h0a11,11,0,0,0-.58,4.93h0c0,.45.1,1,.21,1.78s.2,1.38.33,2.2L51.14,375l4.22-6.09,1.06.29L58,389.47l-1,.44-5.13-5.32L7.46,388.13c0,.85,0,1.59,0,2.23s0,1.33.08,1.79a11,11,0,0,0,1.36,4.77A7.11,7.11,0,0,0,12,399.75a16.29,16.29,0,0,0,2.16.81q1.38.44,3.24.9l.09,1.1a49.19,49.19,0,0,0-6,3,70.51,70.51,0,0,0-6.42,4.19l-.85.6-.08-1L.08,358.17l-.08-1,.93.46Zm8-57q1.68,1.85,3.06,3.18A29.53,29.53,0,0,0,14.42,306h0A29.39,29.39,0,0,0,17,307.73c1,.62,2.21,1.3,3.56,2l1.22.64-1.31.43c-.52.16-1,.29-1.4.4h0l-.13,0h0c-1,.31-1.95.63-2.73.94a13.4,13.4,0,0,0-1.88.9,6.82,6.82,0,0,0-1.31,1,7.42,7.42,0,0,0-1.07,1.33h0a12.25,12.25,0,0,0-1.39,3.22,33.74,33.74,0,0,0-1,4.87c-.18,1.28-.34,2.58-.48,3.88-.11,1.12-.22,2.29-.32,3.51l18.13,2.56L28.34,323l-5.49-6,.51-1,16.38,2.32.23,1.07L33,323.61l-1.49,10.54,22.15,3.13c.21-1,.4-1.93.55-2.71s.29-1.6.37-2.13a39.41,39.41,0,0,0,.44-7.57,14.17,14.17,0,0,0-1.14-5.16,12.76,12.76,0,0,0-2.35-3.14,38.42,38.42,0,0,0-4.33-3.71l.29-1a33.29,33.29,0,0,0,4.18-.6,19.79,19.79,0,0,0,3.37-1,21.73,21.73,0,0,0,3.23-1.7q1.35-.84,2.85-1.95c-.64-.75-1.36-1.54-2.13-2.36q-1.65-1.72-3.68-3.62h0c-1.36-1.27-2.6-2.37-3.71-3.27a32.43,32.43,0,0,0-2.94-2.19l.35-1.07c1.65.11,3.08.16,4.27.13a15.92,15.92,0,0,0,2.87-.29h0a12.85,12.85,0,0,0,3.38-1.35,14.85,14.85,0,0,0,3-2.37h0a18.92,18.92,0,0,0,2.84-3.73,23.37,23.37,0,0,0,2-4.65A17.22,17.22,0,0,0,68.3,277a9.73,9.73,0,0,0-.63-3.89h0a8.92,8.92,0,0,0-2.17-3.29,9,9,0,0,0-5.83-2.32h0a9.1,9.1,0,0,0-2.55.32h0a10.77,10.77,0,0,0-2.5,1,11.9,11.9,0,0,0-2.27,1.63,20,20,0,0,0-1.6,1.7,21.45,21.45,0,0,0-1.49,2c-.47.68-1.06,1.64-1.76,2.84s-1.54,2.69-2.43,4.32h0a33,33,0,0,1-4,6.05,14.06,14.06,0,0,1-4.27,3.5,13.76,13.76,0,0,1-5.43,1.48,16.13,16.13,0,0,1-5.88-.78,16.51,16.51,0,0,1-6.22-3.43,14.71,14.71,0,0,1-3.84-5.65,16.62,16.62,0,0,1-1.14-6,21.82,21.82,0,0,1,1.07-6.62,31.36,31.36,0,0,1,2.17-5.14,50.31,50.31,0,0,1,3.37-5.52h0c.59-.87,1.07-1.63,1.43-2.28a8.48,8.48,0,0,0,.72-1.52,9.42,9.42,0,0,0,.33-2,26.28,26.28,0,0,0,0-3l1-.37c.46.61,1.07,1.34,1.83,2.16h0c.77.84,1.71,1.8,2.81,2.86s2.21,2.11,3.33,3.11h0q1.64,1.47,3.32,2.83l-.41,1a33.37,33.37,0,0,0-3.34-.12h0a17.43,17.43,0,0,0-2.67.21,10.85,10.85,0,0,0-2.93,1,13.12,13.12,0,0,0-2.7,1.85h0A12.45,12.45,0,0,0,20,270.59a11.8,11.8,0,0,0-.57,4,9.7,9.7,0,0,0,.89,3.68h0a7.55,7.55,0,0,0,1.93,2.54,8.44,8.44,0,0,0,2.94,1.57,7.43,7.43,0,0,0,4.44.12,8.78,8.78,0,0,0,3.93-2.63c.48-.51.91-1,1.3-1.49s.71-.92,1-1.37h0c.32-.48.88-1.38,1.66-2.67l3.17-5.27h0A32.35,32.35,0,0,1,45,263.31a16.11,16.11,0,0,1,4.68-3.45h0a16.12,16.12,0,0,1,5.67-1.49,15.89,15.89,0,0,1,5.78.73,15.82,15.82,0,0,1,9.73,8.25A18.87,18.87,0,0,1,73,274.9a22.72,22.72,0,0,1-1.1,8.23,28.93,28.93,0,0,1-1,2.77h0c-.39.9-.83,1.79-1.32,2.68h0c-.49.88-1.15,2-2,3.3s-1.88,2.88-3.09,4.67h0a23,23,0,0,0-1.32,2.15,10.28,10.28,0,0,0-.75,1.71A7.24,7.24,0,0,0,62.2,303a21.64,21.64,0,0,0,.53,3.28l.26.14-6.55,46.35-1.08.22-3.81-6.31-21.36-3a12.56,12.56,0,0,0,.08,4.07,11.62,11.62,0,0,0,1.65,4.12l-.71.85a9.14,9.14,0,0,1-4.72-4,9.78,9.78,0,0,1-1-5.73L8.16,340.55l-5.49,5-1-.51L7.93,301l.17-1.23.84.91Zm36.81-100.3a28.29,28.29,0,0,0,1.45,2.43c.61.93,1.38,2,2.31,3.28s1.85,2.48,2.77,3.61S54.15,212,55.09,213l-.58,1c-1.17-.29-2.26-.52-3.27-.67a18.16,18.16,0,0,0-2.66-.23h0a11.35,11.35,0,0,0-3,.48,13.22,13.22,0,0,0-3,1.38h0a12.86,12.86,0,0,0-2.64,2.21A12.27,12.27,0,0,0,38,220a11.67,11.67,0,0,0-1.23,3.88,9.61,9.61,0,0,0,.29,3.77h0a7.39,7.39,0,0,0,1.49,2.83,8.37,8.37,0,0,0,2.64,2,7.43,7.43,0,0,0,4.36.85h0a8.8,8.8,0,0,0,4.31-1.95c.55-.43,1.06-.86,1.52-1.26s.86-.8,1.22-1.17,1.06-1.19,2.07-2.37,2.34-2.73,4-4.69h0a32,32,0,0,1,5.24-5,16.11,16.11,0,0,1,5.19-2.63h0a15.4,15.4,0,0,1,11.41,1.12,16.28,16.28,0,0,1,5.14,4,16.57,16.57,0,0,1,3.11,5.74,18.79,18.79,0,0,1,.84,7.79,22.56,22.56,0,0,1-2.44,7.94,29.46,29.46,0,0,1-1.47,2.57c-.53.82-1.11,1.63-1.74,2.42h0c-.61.76-1.45,1.74-2.51,2.92s-2.32,2.52-3.82,4.09c-.64.69-1.2,1.32-1.65,1.91h0a10.28,10.28,0,0,0-1,1.57,7.18,7.18,0,0,0-.62,2.52,23.54,23.54,0,0,0,0,4l-1.09.33c-.63-1.13-1.4-2.35-2.28-3.66s-1.9-2.69-3-4.17-2.19-2.77-3.13-3.84a32,32,0,0,0-2.54-2.65l.52-1c1.59.37,3,.65,4.19.82a15,15,0,0,0,2.87.19,12.14,12.14,0,0,0,3.57-.78,14.12,14.12,0,0,0,3.37-1.84h0a18.42,18.42,0,0,0,3.41-3.21A23.65,23.65,0,0,0,83,238.8a17.8,17.8,0,0,0,1.63-4.55,10,10,0,0,0,0-3.94,8.77,8.77,0,0,0-1.6-3.6,9,9,0,0,0-5.37-3.25,9.47,9.47,0,0,0-2.56-.1h0a11.21,11.21,0,0,0-2.63.56,12.59,12.59,0,0,0-2.5,1.23,21.83,21.83,0,0,0-1.86,1.42,23.49,23.49,0,0,0-1.79,1.69c-.58.61-1.32,1.45-2.21,2.51s-1.93,2.37-3.1,3.87A33.69,33.69,0,0,1,56,240a14.05,14.05,0,0,1-4.78,2.74h0a13.88,13.88,0,0,1-5.6.57,16.29,16.29,0,0,1-5.68-1.74,16.52,16.52,0,0,1-5.57-4.41,14.6,14.6,0,0,1-2.85-6.2,16.69,16.69,0,0,1-.14-6.15,21.88,21.88,0,0,1,2.15-6.35,30.5,30.5,0,0,1,3-4.71,47.46,47.46,0,0,1,4.23-4.89c.73-.76,1.32-1.43,1.79-2a10.58,10.58,0,0,0,.95-1.38,9.07,9.07,0,0,0,.66-1.94,27.46,27.46,0,0,0,.52-3l1.09-.19Zm24.17,24.81Zm0,0h0Zm-7.69-58.27a24.59,24.59,0,0,1,7.12-6.78,19.82,19.82,0,0,1,8.72-2.82,25,25,0,0,1,10.48,1.52A45.44,45.44,0,0,1,99.86,165a41.52,41.52,0,0,1,8.87,8.4,25.89,25.89,0,0,1,4.61,9.38,19.53,19.53,0,0,1,.1,9.12,26.85,26.85,0,0,1-11.35,15.7,19.39,19.39,0,0,1-8.69,2.77A25.55,25.55,0,0,1,83,208.86a43.7,43.7,0,0,1-11-6,43.53,43.53,0,0,1-9.12-8.58,25.35,25.35,0,0,1-4.67-9.42,19.32,19.32,0,0,1-.08-9,25.63,25.63,0,0,1,4.16-9Zm3.54,3a10.23,10.23,0,0,0-1.69,3.62,11.59,11.59,0,0,0-.19,4.14h0a12.55,12.55,0,0,0,1.16,3.8,19.77,19.77,0,0,0,2.61,4,38.81,38.81,0,0,0,4.26,4.29c1.72,1.52,3.73,3.1,6,4.75a63,63,0,0,0,9,5.54,25.35,25.35,0,0,0,7.26,2.49,11.73,11.73,0,0,0,3.24,0,12.54,12.54,0,0,0,3.2-.85,12.12,12.12,0,0,0,2.86-1.64,10.77,10.77,0,0,0,2.2-2.27,10.47,10.47,0,0,0,1.72-3.66,11.49,11.49,0,0,0,.21-4.16h0c-.29-2.4-1.58-5-3.84-7.72a54.23,54.23,0,0,0-10-8.89q-2.66-1.92-5-3.38a44.42,44.42,0,0,0-4.24-2.4A30.28,30.28,0,0,0,80.78,166h0a20.38,20.38,0,0,0-3.48-.84,12.8,12.8,0,0,0-3.27,0,12.08,12.08,0,0,0-8.26,4.79ZM86.92,143c.22-1.25.5-2.49.84-3.7h0a36.86,36.86,0,0,1,1.2-3.59h0a49.16,49.16,0,0,1,4-7.91,43.54,43.54,0,0,1,5.18-6.76h0a29.72,29.72,0,0,1,3.2-3,30.11,30.11,0,0,1,3.58-2.44h0a24.44,24.44,0,0,1,3.72-1.76,19.05,19.05,0,0,1,3.66-1h0a13.94,13.94,0,0,1,5.94.26,11.75,11.75,0,0,1,4.91,2.81h0a12.37,12.37,0,0,1,2.9,4.07,13.79,13.79,0,0,1,1.11,5.08,18.8,18.8,0,0,1-.69,5.68h0a26.58,26.58,0,0,1-2.14,5.34,63.6,63.6,0,0,0,7.28,2.54,80.32,80.32,0,0,0,8.7,1.95,66.43,66.43,0,0,0,8.3.89,35.1,35.1,0,0,0,6.69-.33l.93-.15.55-6.81-31.52-30.39-7.38.84-.48-1L131.5,89.1l1,.44L131.93,97l31.51,30.38,7.37-.87.48,1-14.1,14.63-1-.45v-.19l-.28.59a44.92,44.92,0,0,0-2.74,7.24,40,40,0,0,0-1.34,7.25l-.08,1-.82-.55q-4-2.7-7.47-4.81c-2.33-1.4-4.5-2.64-6.54-3.7h0c-2-1.06-4.38-2.17-7-3.32s-5.32-2.26-8.41-3.48c-.25.48-.55,1-.89,1.58-.45.76-1,1.62-1.61,2.57s-1.13,1.73-1.6,2.42-.71,1-1,1.42l13.14,12.28,7.34-1,.51,1-13.89,14.85-1-.44L123,169l-12.19-11.4q-1.11,1.44-1.89,2.67a17,17,0,0,0-1.44,2.64l-1.1-.05a16.44,16.44,0,0,0-1-2.43,15.61,15.61,0,0,0-1.3-2.12l-.32-.43.39-.35c.31-.28.59-.55.85-.8l.63-.62h0c.26-.27.55-.61.86-1h0c.21-.26.44-.55.69-.88l-13.38-12.5-6.1,2-.92.31.16-1Zm10.76-10.85,15.5,14.49a42.84,42.84,0,0,0,3.48-5.49,29.35,29.35,0,0,0,2.31-5.66,14.7,14.7,0,0,0,.58-3.91,11,11,0,0,0-.55-3.5h0a11.83,11.83,0,0,0-1.15-2.46,10.38,10.38,0,0,0-1.67-2,9.91,9.91,0,0,0-3.89-2.32,9.75,9.75,0,0,0-4.49-.23,11.73,11.73,0,0,0-3.71,1.31,13.44,13.44,0,0,0-3.22,2.55h0a11.94,11.94,0,0,0-2.3,3.49,11.38,11.38,0,0,0-.89,3.75ZM178.54,72.6l12.64,21.24h0a37.18,37.18,0,0,0,3.66,5.25,13.42,13.42,0,0,0,3.33,3h0a8,8,0,0,0,3.48,1.06h0a12.44,12.44,0,0,0,4.27-.51l.45,1.06-17.75,10.57-.71-.91a12.5,12.5,0,0,0,2.49-3.51,8,8,0,0,0,.73-3.58,13.3,13.3,0,0,0-1-4.34,38.64,38.64,0,0,0-2.87-5.73l-17-28.6-7.35-1.14-.2-1.08L181.79,54l.85.7-2.46,6.88,27.28,23.33-6.83-35.51-7.2-1.13-.21-1.07L211.8,36.12l.85.7-2.52,7,22.41,37.66,7.31,1.06.22,1.08L222.61,94l-.84-.7,2.53-6.92-17.86-30,8.09,42,.08.4-.35.21-2.51,1.49-.36.22-.31-.27L178.54,72.6Zm66.05-50a24.87,24.87,0,0,1,9.61-2.09,19.94,19.94,0,0,1,8.91,2.13,25,25,0,0,1,8.16,6.75,45.8,45.8,0,0,1,6.45,11.17,41.55,41.55,0,0,1,3.2,11.78A25.76,25.76,0,0,1,280,62.75a19.41,19.41,0,0,1-4.66,7.84,27,27,0,0,1-17.86,7.52A19.57,19.57,0,0,1,248.6,76h0a25.6,25.6,0,0,1-8.14-6.71,43.65,43.65,0,0,1-6.31-10.84,43.59,43.59,0,0,1-3.33-12.08,25.63,25.63,0,0,1,.91-10.48,19.5,19.5,0,0,1,4.62-7.74,25.92,25.92,0,0,1,8.23-5.49ZM246,27.05a10.06,10.06,0,0,0-3.31,2.21h0a11.45,11.45,0,0,0-2.32,3.43h0a12,12,0,0,0-1,3.86,19.61,19.61,0,0,0,.16,4.72A39.06,39.06,0,0,0,241,47.14c.68,2.19,1.57,4.58,2.67,7.19a63.84,63.84,0,0,0,4.77,9.4,25.63,25.63,0,0,0,4.91,5.91h0a12.2,12.2,0,0,0,2.74,1.71,12.67,12.67,0,0,0,3.19.93,12.17,12.17,0,0,0,3.29.09,10.78,10.78,0,0,0,3.06-.79h0A10.64,10.64,0,0,0,269,69.35a11.54,11.54,0,0,0,2.34-3.45h0q1.5-3.3.73-8.6a53.59,53.59,0,0,0-3.88-12.78h0c-.86-2-1.7-3.87-2.5-5.48s-1.61-3-2.39-4.27h0a31.5,31.5,0,0,0-2.42-3.29h0A20.55,20.55,0,0,0,258.36,29h0a12.52,12.52,0,0,0-2.77-1.72,12.27,12.27,0,0,0-3.16-.92,11.87,11.87,0,0,0-6.4.72Zm33.2-14.16,17.65-4.5a43,43,0,0,1,10.71-1.51h0a20,20,0,0,1,8.3,1.62,21.71,21.71,0,0,1,8.77,7.23,35.33,35.33,0,0,1,5.4,12.16,38.86,38.86,0,0,1,1.26,14.51,20.7,20.7,0,0,1-4.63,10.89h0a20.51,20.51,0,0,1-2.92,2.9,21.41,21.41,0,0,1-3.38,2.26,31.62,31.62,0,0,1-4.25,1.83q-2.44.87-5.56,1.66l-17.68,4.51-.62-.91,4.39-6L285.84,17.15,279.12,14l.1-1.09ZM294.94,14l11.22,44c.92-.15,1.73-.3,2.43-.43s1.44-.28,1.87-.39h0a15.48,15.48,0,0,0,6.31-3.09,12.26,12.26,0,0,0,3.57-5.38h0a23.25,23.25,0,0,0,1.18-8.14A45.3,45.3,0,0,0,320,30.34q-2.37-9.27-7-14.16a12.89,12.89,0,0,0-6.11-3.71,15.31,15.31,0,0,0-7.58.18h0c-.4.11-1,.28-1.82.54l-2.55.82ZM385.37,1c-1,1.29-1.91,2.47-2.65,3.54A26.84,26.84,0,0,0,381,7.23h0a30.57,30.57,0,0,0-1.32,2.81c-.46,1.1-.94,2.39-1.43,3.84l-.45,1.31L377.18,14c-.25-.49-.46-1-.65-1.38h0l0-.07c-.48-1-.94-1.82-1.37-2.54a12.09,12.09,0,0,0-1.19-1.71,6.76,6.76,0,0,0-1.2-1.13,8,8,0,0,0-1.49-.85h0a12,12,0,0,0-3.4-.87,32.69,32.69,0,0,0-5-.22c-1.26,0-2.56.08-3.9.15-1.13.06-2.3.14-3.51.23l.36,18.31,10.64-.21,5.08-6.38,1,.35.32,16.55-1,.39-5.33-6.17-10.63.2L356.35,51c1.07,0,2,.09,2.76.11s1.64,0,2.16,0a38.59,38.59,0,0,0,7.54-.77,14.26,14.26,0,0,0,4.92-1.94,12.81,12.81,0,0,0,2.73-2.83,37.38,37.38,0,0,0,3-4.87l1.08.13a34.49,34.49,0,0,0,1.25,4A19.38,19.38,0,0,0,383.28,48h0A21.31,21.31,0,0,0,385.48,51a43.84,43.84,0,0,0,3.2,3.29l-.38,1-46.8.92-.39-1,5.62-4.77-.43-21.57a12.67,12.67,0,0,0-4,.72,11.39,11.39,0,0,0-3.8,2.3l-1-.57A9.09,9.09,0,0,1,340.71,26h0a9.78,9.78,0,0,1,5.5-1.88l-.35-17.52L340,2l.36-1L384.9,0l1.23,0-.76,1Zm8.46-.08,20.29,1.29.29,1-6,4.36-2.84,44.53c1.17.15,2.27.28,3.26.38s2.16.21,3.1.26a21.27,21.27,0,0,0,5.74-.32,10.61,10.61,0,0,0,4.14-1.75h0a10.85,10.85,0,0,0,2.93-3.4,21.11,21.11,0,0,0,2-5.33l1.12,0q.69,2.53,1.55,4.94c.57,1.63,1.19,3.2,1.84,4.68a38.81,38.81,0,0,0,1.9,3.82h0a14.88,14.88,0,0,0,1.72,2.5l-.46,1-44.11-2.81L390,55l6-4.28L398.81,7l-5.42-5.09.44-1Zm106.7,21,19.52,6.7-.2,1.14a14.15,14.15,0,0,0-4.44.49,8.27,8.27,0,0,0-3.18,1.72h0a13.38,13.38,0,0,0-2.59,3.53,37.79,37.79,0,0,0-2.49,5.89L501.43,58c-.73,2.13-1.39,4-2,5.5s-1.11,2.81-1.57,3.77a25.73,25.73,0,0,1-1.41,2.64h0A16,16,0,0,1,494.89,72h0a10.29,10.29,0,0,1-3.51,2.55,11.72,11.72,0,0,1-4.41.93,22.9,22.9,0,0,1-4.41-.31A28.7,28.7,0,0,1,478,74.05a27.24,27.24,0,0,1-9.57-5.25,12.73,12.73,0,0,1-4.19-7.44,19.62,19.62,0,0,1,.27-6.44A59.88,59.88,0,0,1,466.92,46L476,19.55l-3.88-6.33.69-.86L492,19l0,1.1-6.93,2.62L474.22,54.29c-.48,1.44-.87,2.73-1.15,3.87a18.34,18.34,0,0,0-.47,2.92,9,9,0,0,0,.15,2.24h0a6.23,6.23,0,0,0,.73,1.87h0A9,9,0,0,0,476,67.84a16.31,16.31,0,0,0,4.12,2,14.67,14.67,0,0,0,6.55.92,7.25,7.25,0,0,0,4.54-2.3h0a18.16,18.16,0,0,0,2.8-4.38,65.6,65.6,0,0,0,3-7.57l5.73-16.67a40.69,40.69,0,0,0,1.65-6.18,13.21,13.21,0,0,0,.13-4.38A8,8,0,0,0,503.17,26h0A14.48,14.48,0,0,0,500,22.9l.54-1Zm40,64.68,11.77-22.88a37.6,37.6,0,0,0,2.51-5.86,13.94,13.94,0,0,0,.76-4.32h0a8.3,8.3,0,0,0-.94-3.5,14.45,14.45,0,0,0-2.71-3.53l.67-.94L571,55l-.37,1.09a14.15,14.15,0,0,0-4.45-.15,8,8,0,0,0-3.4,1.25,13.18,13.18,0,0,0-3.07,3.12h0a38.64,38.64,0,0,0-3.32,5.47L538.8,99.94l-.27.52-.51-.27L532,97.08l-.31-.17v-.35l-.06-48.37L519.2,72.26a39.24,39.24,0,0,0-2.52,5.87,13.5,13.5,0,0,0-.75,4.3,8.38,8.38,0,0,0,1,3.48,14.2,14.2,0,0,0,2.72,3.53l-.68.93-18.38-9.46.36-1.09a14.28,14.28,0,0,0,4.48.13,7.94,7.94,0,0,0,3.39-1.25,13.41,13.41,0,0,0,3.06-3.1,39,39,0,0,0,3.3-5.43l15.22-29.6-2.92-6.82.8-.75,19.45,10-.15,1.08-7.08,1.55.09,40.93Zm35.69-26.79,17,11.08L593,71.92l-7.4.84-23.86,36.7,2.24,7.06-.86.67-17-11.08.25-1.07,7.36-.81,23.87-36.71-2.22-7.09.87-.66Zm63.61,52.54a71.18,71.18,0,0,0-7.31,2.42,48.54,48.54,0,0,0-6,2.83l-.81-.75c.55-1.2,1-2.23,1.32-3.1a16.91,16.91,0,0,0,.71-2.19,7.24,7.24,0,0,0-.27-4.2,11.2,11.2,0,0,0-2.89-4h0c-.33-.31-.78-.7-1.36-1.18h0l-1.72-1.4L591,133.28l1,7.34-1,.5-14.85-13.87.44-1,7.39.48,30.44-32.57c-.58-.64-1.07-1.18-1.51-1.63s-.95-1-1.25-1.28a11.08,11.08,0,0,0-4.23-2.61,7.14,7.14,0,0,0-4.22,0h0a19.34,19.34,0,0,0-2.13.86c-.87.4-1.87.91-3,1.52l-.8-.76A55,55,0,0,0,599.72,84h0c.71-2.28,1.35-4.76,1.92-7.42l.21-1,.75.71,37.48,35,.75.71-1,.28Zm34.64,40.07c-1.66,0-3.14,0-4.41.08a29.63,29.63,0,0,0-3.22.3h0c-.86.14-1.88.37-3,.68h0c-1.18.32-2.49.73-3.92,1.22l-1.28.44.57-1.24c.22-.47.45-.9.66-1.29h0l.08-.12c.47-1,.87-1.87,1.17-2.64h0a14.61,14.61,0,0,0,.63-2,7,7,0,0,0,.16-1.65h0a7.74,7.74,0,0,0-.24-1.69h0a12.24,12.24,0,0,0-1.39-3.22,35.15,35.15,0,0,0-2.87-4.07c-.8-1-1.63-2-2.51-3s-1.54-1.76-2.33-2.63L638.27,143l6.67,8.29,8.15.11.36,1-12.89,10.38-.93-.57,1.62-8L634.58,146l-17.43,14c.58.82,1.12,1.58,1.61,2.25h0c.52.73,1,1.31,1.3,1.73a39.39,39.39,0,0,0,5.22,5.48,14.24,14.24,0,0,0,4.55,2.71,12.9,12.9,0,0,0,3.91.42h0a36.5,36.5,0,0,0,5.66-.63l.56.94a32.28,32.28,0,0,0-2.42,3.45,18.28,18.28,0,0,0-1.56,3.14h0a23.16,23.16,0,0,0-1,3.52h0c-.27,1.36-.48,2.88-.64,4.54l-1,.31L604,151.44l.57-.94,7.21,1.54,16.81-13.53a12.45,12.45,0,0,0-3-2.72,11.38,11.38,0,0,0-4.14-1.6l-.14-1.11a9.14,9.14,0,0,1,6.13-.73,9.85,9.85,0,0,1,4.85,3.2l13.65-11,.09-7.43,1-.36,27.91,34.67.78,1-1.24,0Zm7.9,8.68,9.32,15.66h0a43.42,43.42,0,0,1,4.48,9.85A20.56,20.56,0,0,1,697,195a21.93,21.93,0,0,1-4.45,10.46,35.4,35.4,0,0,1-10.15,8.62h0a38.85,38.85,0,0,1-13.55,5.31A20.64,20.64,0,0,1,657.07,218h0a21.3,21.3,0,0,1-3.61-2,20.46,20.46,0,0,1-3.11-2.62,30.3,30.3,0,0,1-3-3.55c-1-1.39-2.06-3-3.15-4.86h0l-9.34-15.68.7-.85,7,2.52,37.62-22.39,1.14-7.34,1.08-.21Zm3.38,15.39-39,23.22c.42.85.78,1.59,1.1,2.2h0c.38.74.69,1.3.91,1.69h0a15.11,15.11,0,0,0,4.76,5.16,12.12,12.12,0,0,0,6.16,1.91h0a23.3,23.3,0,0,0,8.15-1.17,44.53,44.53,0,0,0,9.36-4.34,41.25,41.25,0,0,0,7-5.14,24.69,24.69,0,0,0,4.57-5.59,12.77,12.77,0,0,0,1.82-6.9,15.12,15.12,0,0,0-2.31-7.23c-.21-.35-.57-.88-1-1.59s-.9-1.34-1.51-2.22Zm7,103.23L717,271.05a38.89,38.89,0,0,0,5.84-2.56,13.16,13.16,0,0,0,3.5-2.63h0a8.17,8.17,0,0,0,1.71-3.19,13.63,13.63,0,0,0,.44-4.43l1.13-.22,6.94,19.47-1,.55a14.43,14.43,0,0,0-3.13-3.16,8.14,8.14,0,0,0-3.35-1.41,13.37,13.37,0,0,0-4.38.17,39,39,0,0,0-6.15,1.72l-36.2,12.89-.55.19-.2-.55-2.28-6.42-.12-.33.25-.26,33.05-35.31L687,254.65a38.55,38.55,0,0,0-5.84,2.56,12.81,12.81,0,0,0-3.49,2.62h0a8.08,8.08,0,0,0-1.69,3.19,14.17,14.17,0,0,0-.44,4.43l-1.12.22-6.94-19.48,1-.54a14.27,14.27,0,0,0,3.17,3.15h0a8.16,8.16,0,0,0,3.34,1.41,13.45,13.45,0,0,0,4.35-.17,37.84,37.84,0,0,0,6.12-1.7l31.36-11.16,2.53-7h1.1l7.33,20.6-.85.69-6.21-3.72-28,29.91ZM744,325.52,738.8,322,722,331.43a29.82,29.82,0,0,0,2.48,2.44,21.08,21.08,0,0,0,3,2.18l1,.59-1.08.44c-.57.24-1.19.54-1.85.88h0c-.64.34-1.32.73-2,1.16s-1.32.85-1.87,1.25a16.81,16.81,0,0,0-1.47,1.16l-.86.78-.11-1.16c0-.4-.09-.83-.13-1.27s-.11-.82-.16-1.13a11,11,0,0,0-.72-2.62h0a9.8,9.8,0,0,0-1-1.83L698,345l-3.76,6.86-1.08-.19-3.26-21,1-.53,5.38,4.69,13.11-7.44-.94-.68h0l-1.63-1.2h0c-1.47-1-2.85-1.9-4.1-2.6a21.93,21.93,0,0,0-3.42-1.59l-1-.35.77-.65q3.85-3.3,6.62-6.14a47.79,47.79,0,0,0,3.86-4.42c-2.5-.44-4.54-.78-6.07-1h0c-1.58-.26-2.77-.44-3.53-.53s-1.44-.11-2.08-.11a11.72,11.72,0,0,0-1.8.14h0a9.18,9.18,0,0,0-2.85.93,7.87,7.87,0,0,0-2.2,1.76l-.86,1.07-1.81,2.28-.83,1-.2-1.32-3.23-20.81,1-.44a31.63,31.63,0,0,0,2.59,3.15,19.62,19.62,0,0,0,2.53,2.26h0a20.49,20.49,0,0,0,3,1.8,42.48,42.48,0,0,0,4,1.7c1.21.44,2.34.83,3.38,1.16h0c1,.33,2,.59,2.86.8h0c.89.21,2.06.44,3.49.69s2.94.48,4.81.76a12.64,12.64,0,0,0,.54-1.27h0a8.87,8.87,0,0,0,.37-1.34h0a8.61,8.61,0,0,0,.15-1.43h0c0-.58,0-1.24,0-2l0-1,.86.4c.57.27,1.19.54,1.82.79s1.3.51,2,.75h0c.7.24,1.32.44,1.84.59h0a11.84,11.84,0,0,0,1.27.28l1.18.16-.85.83a13.36,13.36,0,0,0-1.13,1.29c-.38.49-.75,1-1.12,1.62h0l-.93,1.5-.09.11,19.28,4,3.94-4.9.82-1,.21,1.3,3,19.19.2,1.31-1.09-.74Zm-11.76-11.09L715,310.73q-1.63,2-3.76,4.31c-1.33,1.44-2.81,3-4.45,4.57l1,.6,2.43,1.42h0c.65.38,1.37.84,2.12,1.36s1.34,1,2.07,1.52l17.82-10.08Zm16.55,78.21a75.38,75.38,0,0,0-7-3.13,47.83,47.83,0,0,0-6.37-2l-.1-1.11c1.2-.51,2.22-1,3.07-1.39a17.53,17.53,0,0,0,2-1.15A7.17,7.17,0,0,0,743,380.6h0a11.22,11.22,0,0,0,.57-4.93h0c0-.44-.1-1-.21-1.77s-.2-1.38-.33-2.2l-44.44,3.55-4.23,6.08-1-.28-1.62-20.26,1-.45,5.12,5.33,44.45-3.55c0-.85,0-1.59,0-2.23a17.47,17.47,0,0,0-.07-1.79,11,11,0,0,0-1.35-4.77,7.11,7.11,0,0,0-3.13-2.83,16.18,16.18,0,0,0-2.14-.81c-.92-.28-2-.58-3.26-.89l-.07-1.1a51.35,51.35,0,0,0,6-3,74.2,74.2,0,0,0,6.42-4.19l.85-.61.08,1,4.08,51.14.09,1-.93-.46Zm-2.56,8.24L745,421.16l-1.05.31-4.36-6-43.7-2.79-5.05,5.43-1-.43,1.29-20.29,1.06-.3,4.31,6,43.7,2.78,5.08-5.4,1,.43Zm-7.7,59.24a24.66,24.66,0,0,1-4.38,8.82,19.82,19.82,0,0,1-7.23,5.62,25,25,0,0,1-10.37,2.15,46,46,0,0,1-12.74-1.94,41.5,41.5,0,0,1-11.2-4.87,25.53,25.53,0,0,1-7.54-7.25,19.49,19.49,0,0,1-3.21-8.53,27,27,0,0,1,5.3-18.63,19.51,19.51,0,0,1,7.22-5.57,25.74,25.74,0,0,1,10.34-2.16,48.71,48.71,0,0,1,23.9,6.8,25.48,25.48,0,0,1,7.6,7.27,19.12,19.12,0,0,1,3.16,8.44,25.75,25.75,0,0,1-.84,9.85Zm-4.36-1.65a10.58,10.58,0,0,0,.34-4,11.64,11.64,0,0,0-1.23-3.95h0a12.12,12.12,0,0,0-2.4-3.17,18.54,18.54,0,0,0-3.78-2.83h0a39.24,39.24,0,0,0-5.47-2.57c-2.12-.83-4.54-1.64-7.28-2.41a64.25,64.25,0,0,0-10.32-2.15,25.31,25.31,0,0,0-7.68.15v0a12.63,12.63,0,0,0-3,1.08,12.76,12.76,0,0,0-2.73,1.9h0a12.74,12.74,0,0,0-2.13,2.51h0a11,11,0,0,0-1.66,6.92h0a11.24,11.24,0,0,0,1.23,4h0c1.09,2.15,3.18,4.14,6.25,5.94a54,54,0,0,0,12.4,5c2.13.6,4.07,1.09,5.85,1.48s3.39.64,4.82.8a32.1,32.1,0,0,0,4.08.17h0a21.64,21.64,0,0,0,3.54-.4,12.32,12.32,0,0,0,3.07-1.09,12.59,12.59,0,0,0,2.69-1.89,12.08,12.08,0,0,0,2.11-2.5,11.54,11.54,0,0,0,1.34-2.94Zm-57,51,24.1,9a39.52,39.52,0,0,0,6.11,1.8,13.93,13.93,0,0,0,4.38.24h0a8.09,8.09,0,0,0,3.37-1.35,14,14,0,0,0,3.19-3.1l1,.56L712.15,536l-1.13-.24a14.77,14.77,0,0,0-.37-4.44,8.3,8.3,0,0,0-1.64-3.23,13.85,13.85,0,0,0-3.46-2.68,39.25,39.25,0,0,0-5.83-2.65l-36-13.44-.55-.21.2-.54,2.38-6.38.13-.33.35-.05,48-5.74-25.36-9.47a38.37,38.37,0,0,0-6.12-1.81,13.2,13.2,0,0,0-4.36-.23,8.13,8.13,0,0,0-3.35,1.34A14.32,14.32,0,0,0,671.9,489l-1-.56,7.23-19.37,1.14.23a13.9,13.9,0,0,0,.39,4.46,7.93,7.93,0,0,0,1.64,3.22,13.43,13.43,0,0,0,3.44,2.68,37.87,37.87,0,0,0,5.77,2.63l31.19,11.65,6.44-3.71.84.7-7.65,20.49h-1.1l-2.37-6.85-40.63,4.9Zm8.35,68.46a23.14,23.14,0,0,0-1.37-2.47c-.59-1-1.32-2.09-2.21-3.37s-1.77-2.5-2.65-3.68-1.81-2.35-2.7-3.43l.6-.94a30.59,30.59,0,0,0,3.24.78,18.91,18.91,0,0,0,2.67.31,10.21,10.21,0,0,0,3.06-.39,13,13,0,0,0,3-1.27h0a13.21,13.21,0,0,0,2.71-2.13,12.6,12.6,0,0,0,2-2.77,11.73,11.73,0,0,0,1.35-3.83,9.87,9.87,0,0,0-.16-3.79h0a7.62,7.62,0,0,0-1.4-2.87,8.7,8.7,0,0,0-2.59-2.12,7.4,7.4,0,0,0-4.33-1,8.86,8.86,0,0,0-4.36,1.82c-.58.42-1.09.83-1.56,1.21a16.5,16.5,0,0,0-1.26,1.13v0c-.39.4-1.11,1.17-2.17,2.32s-2.33,2.56-4.1,4.53h0a33,33,0,0,1-5.4,4.82,16.34,16.34,0,0,1-5.26,2.48,16,16,0,0,1-5.85.34h0a15.31,15.31,0,0,1-5.53-1.84,16,16,0,0,1-5-4.14,16.53,16.53,0,0,1-2.94-5.85,18.74,18.74,0,0,1-.59-7.8,22.8,22.8,0,0,1,2.68-7.86h0c.48-.86,1-1.7,1.54-2.51s1.18-1.61,1.82-2.37h0c.63-.75,1.51-1.7,2.61-2.85s2.4-2.45,3.94-4c.66-.66,1.23-1.28,1.71-1.85h0a10.25,10.25,0,0,0,1.06-1.55,7.07,7.07,0,0,0,.7-2.49h0a23.16,23.16,0,0,0,.08-4l1.11-.3c.6,1.14,1.33,2.39,2.17,3.73s1.81,2.77,2.9,4.27,2.09,2.83,3,3.93a31.66,31.66,0,0,0,2.47,2.72l-.55,1c-1.59-.43-3-.74-4.16-1a15.13,15.13,0,0,0-2.88-.27,12.17,12.17,0,0,0-3.57.66h0A14.36,14.36,0,0,0,656,531h0a18.4,18.4,0,0,0-3.52,3.11,23.36,23.36,0,0,0-2.88,4.16,17,17,0,0,0-1.77,4.5,10.18,10.18,0,0,0-.14,3.94,9.11,9.11,0,0,0,1.49,3.65,8.55,8.55,0,0,0,2.93,2.54,8.46,8.46,0,0,0,2.34.87A8.93,8.93,0,0,0,657,554h0a11.46,11.46,0,0,0,2.64-.48,13.1,13.1,0,0,0,2.55-1.15,23.07,23.07,0,0,0,3.73-3c.61-.59,1.36-1.41,2.28-2.45s2-2.29,3.22-3.77a34.13,34.13,0,0,1,5.13-5.15,13.8,13.8,0,0,1,4.87-2.59h0a13.88,13.88,0,0,1,5.61-.41,17.66,17.66,0,0,1,11.05,6.5h0a14.69,14.69,0,0,1,2.65,6.3h0a16.22,16.22,0,0,1,0,6.13,21.77,21.77,0,0,1-2.34,6.3,32.31,32.31,0,0,1-3.12,4.61,52.11,52.11,0,0,1-4.39,4.76c-.76.73-1.37,1.38-1.85,1.94a9.63,9.63,0,0,0-1,1.37,8.86,8.86,0,0,0-.72,1.92,23,23,0,0,0-.6,2.91l-1.11.17Z"/>
      <path class="cls-2"
            d="M155.59,839.7l-1.53,1.71h0a17.78,17.78,0,0,1-2.4,2.14,15,15,0,0,1-2.71,1.57h0a10.23,10.23,0,0,1-2.1.72,9.92,9.92,0,0,1-2.19.21h0a10.49,10.49,0,0,1-3.75-.65,7.81,7.81,0,0,1-2.9-2,8.49,8.49,0,0,1-1.83-3.11,13.32,13.32,0,0,1-.59-4.11h0a15.13,15.13,0,0,1,.28-3,16.91,16.91,0,0,1,.89-3h0a21.5,21.5,0,0,1,2.44-4.63,21.1,21.1,0,0,1,3.47-3.85,17.11,17.11,0,0,1,4.64-2.94,13,13,0,0,1,5-1h0a10.54,10.54,0,0,1,2.42.27,6.85,6.85,0,0,1,2,.77h0a5.39,5.39,0,0,1,1.79,1.72h0a4.32,4.32,0,0,1,.62,2.27h0a4.39,4.39,0,0,1-.18,1.25,4.25,4.25,0,0,1-.57,1.15h0a2.79,2.79,0,0,1-1,.89,3.06,3.06,0,0,1-1.37.3h0a3,3,0,0,1-2.06-.77,2.93,2.93,0,0,1-.78-2v0a3.74,3.74,0,0,1,.1-.81,4.8,4.8,0,0,1,.29-.8h0l.46-.89,0-.1a2.67,2.67,0,0,0-.73-.22l-1.11-.11a5.78,5.78,0,0,0-1.21.17h0a7,7,0,0,0-1.29.48h0a9.26,9.26,0,0,0-1.56.9,7.23,7.23,0,0,0-1.2,1h0a16.91,16.91,0,0,0-2,2.76,21.07,21.07,0,0,0-1.61,3.41h0a22.83,22.83,0,0,0-1,3.56h0a17.74,17.74,0,0,0-.31,3.44h0a9.14,9.14,0,0,0,.29,2.34,7.27,7.27,0,0,0,.85,2h0a4.06,4.06,0,0,0,1.48,1.44h0a4.32,4.32,0,0,0,2.09.43h0a6.11,6.11,0,0,0,2.93-.89,15.89,15.89,0,0,0,3.43-2.77l.7-.71.33-.36.4.27,1.1.69.58.36-.46.51Zm6-1.38,2.52-9.09,1.28-5.08c.06-.29.12-.57.16-.83s.06-.48.07-.67l-.08-.56s-.07-.1-.18-.15a3.23,3.23,0,0,0-1-.24l-1.27-.07h-1.56l.24-.76.35-1.1.1-.34.35-.06,9.13-1.6.9-.16-.24.89L170.6,825l1.47-2.18h0a17.26,17.26,0,0,1,3.3-3.73,5.47,5.47,0,0,1,3.26-1.36h0a3.22,3.22,0,0,1,2.44,1,4.12,4.12,0,0,1,.91,2.66v0a5.6,5.6,0,0,1-.2,1.46h0a2.67,2.67,0,0,1-.63,1.11h0a3.75,3.75,0,0,1-1.16.85,2.86,2.86,0,0,1-1.31.27h0a2.59,2.59,0,0,1-2.37-1.2l-.53-.65-.3.21-1.21,1.21a25,25,0,0,0-1.74,2.34c-.59.88-1.18,1.85-1.76,2.91-.32.59-.64,1.22-.94,1.88s-.59,1.33-.88,2h0c-.34.83-.68,1.7-1,2.6s-.58,1.69-.83,2.52h0l-1.88,5.93-.12.41h-5.58l.21-.75,1.83-6.28Zm26-2.93a10.68,10.68,0,0,0-.22,1.16,8.09,8.09,0,0,0-.08,1.08h0a3.77,3.77,0,0,0,0,.68,3.33,3.33,0,0,0,.16.6l0,0a3.18,3.18,0,0,0,.37.82h0a4.33,4.33,0,0,0,.59.72l0,0a3.9,3.9,0,0,0,1.42,1,5.32,5.32,0,0,0,1.9.34h0a7.09,7.09,0,0,0,1.48-.13,6,6,0,0,0,1.32-.44h0a15.83,15.83,0,0,0,2.47-1.38h0c.81-.54,1.65-1.15,2.39-1.71l.43-.32.35.4.81.88.39.44-.44.39c-.58.53-1.16,1-1.76,1.54h0c-.59.49-1.2,1-1.85,1.48h0a17.13,17.13,0,0,1-4.08,2.31,11,11,0,0,1-4,.79h-.2a7.86,7.86,0,0,1-5.9-2.39,8.82,8.82,0,0,1-2.22-6h0v-.22h0a17.69,17.69,0,0,1,1.34-6.67,22.57,22.57,0,0,1,3.93-6.28,21.9,21.9,0,0,1,5.91-5,13.14,13.14,0,0,1,6.37-1.7h0a6.32,6.32,0,0,1,4.15,1.28,4.55,4.55,0,0,1,1.42,3.68,8.08,8.08,0,0,1-1.56,4.64h0a14.53,14.53,0,0,1-4.44,3.91v0a21.45,21.45,0,0,1-4.77,2.05,33.46,33.46,0,0,1-5.54,1.14l-.25.91h0Zm1.17-4,.93-.25a13.64,13.64,0,0,0,5.37-2.74,11.35,11.35,0,0,0,3.22-4.61,5.67,5.67,0,0,0,.28-.89h0a3.58,3.58,0,0,0,.09-.77h0a1.74,1.74,0,0,0-.32-1.2h0a1.41,1.41,0,0,0-1-.31,4.35,4.35,0,0,0-2.51,1.18,18.07,18.07,0,0,0-3.1,3.62h0a21,21,0,0,0-1.24,2,17.12,17.12,0,0,0-.9,1.9h0c-.14.33-.3.76-.49,1.3h0l-.27.81Zm31.31,8.71c-.52.67-1,1.25-1.47,1.76h0a14.65,14.65,0,0,1-1.94,1.87h0a10.18,10.18,0,0,1-6,2.27,6.45,6.45,0,0,1-2.75-.56,5.83,5.83,0,0,1-2.2-1.76,8.66,8.66,0,0,1-1.55-5.2,14.51,14.51,0,0,1,.33-3.16,19.79,19.79,0,0,1,1-3.33,28.23,28.23,0,0,1,4.93-8.1,20.42,20.42,0,0,1,6.76-5.2,9.36,9.36,0,0,1,4.64-.92,5.28,5.28,0,0,1,3.59,1.76l0,0v0l.21-.69.13-.42h5.42l-.23.75-.61,2.06h0L228.91,827h0l-2.15,7.94h0l-1,4.18c-.12.52-.21,1-.28,1.45h0a7.07,7.07,0,0,0-.09,1v.21a3.21,3.21,0,0,0,.74-.49,25.3,25.3,0,0,0,3.06-3.31l.42-.53.47.5.89,1,.34.37-.33.4-.5.6c-1.91,2.28-4.81,5.74-7.74,5.78h0c-2.38-.07-3-1.65-2.94-3.59a12.11,12.11,0,0,1,.34-2.35Zm-9.58-2a5.48,5.48,0,0,0,.71,3.1h0a1.63,1.63,0,0,0,1.34.7h0a4.48,4.48,0,0,0,2.08-.62,15,15,0,0,0,5.24-5.15c.36-.61.72-1.28,1.07-2s.67-1.51,1-2.35h0c.26-.67.52-1.38.76-2.11s.47-1.52.67-2.27a18.59,18.59,0,0,0,.47-2.14,11.17,11.17,0,0,0,.16-1.84,3.2,3.2,0,0,0-.18-1.09h0a2.82,2.82,0,0,0-.51-.89,2.43,2.43,0,0,0-2.32-.73,8.14,8.14,0,0,0-3.62,2,15.9,15.9,0,0,0-3,3.77,39.09,39.09,0,0,0-2.18,4.47h0a23.8,23.8,0,0,0-1.29,3.81h0a14.75,14.75,0,0,0-.42,3.39ZM234,821l.4-1.36.09-.32.31-.09a15.15,15.15,0,0,0,2.67-1,10.24,10.24,0,0,0,2.1-1.4h0c.4-.32.8-.69,1.2-1.06s.8-.78,1.19-1.2h0l2-2.19.18-.19h1.92l-.19.73-1.4,5.53h4.47l-.17.71-.48,2.14-.1.46h-4.57l-4.77,17.32-.24,1.22h0l-.2,1.07a1.17,1.17,0,0,0,0,.29h0v.07l0,0a2.74,2.74,0,0,0,.66-.45,12.2,12.2,0,0,0,1.56-1.61c.24-.28.48-.57.7-.87h0c.22-.29.43-.57.61-.85l.3-.44.32-.48.47.31,1.07.67.51.31-.33.5-.7,1.05h0l-1.58,2.15h0c-.3.38-.6.74-.92,1.09h0c-.31.33-.63.66-.94.94a7.64,7.64,0,0,1-2.1,1.42,6.15,6.15,0,0,1-2.35.5h0a3.18,3.18,0,0,1-2.43-.93h0a3.67,3.67,0,0,1-.83-2.56,5.72,5.72,0,0,1,.08-.84c.06-.29.13-.63.23-1h0l.92-3.49h0L238,821.79h-4.21L234,821Zm20.45,16.59v.09a3.8,3.8,0,0,0,1.29,2.9,4.9,4.9,0,0,0,3.13,1.19H259a6.92,6.92,0,0,0,1.47-.14,5.51,5.51,0,0,0,1.32-.43h0a16.3,16.3,0,0,0,2.47-1.38h0c.82-.54,1.66-1.15,2.4-1.72l.42-.31.36.39.8.89.4.43-.44.4c-.58.52-1.17,1-1.76,1.54h0c-.59.49-1.2,1-1.85,1.48h0a14.68,14.68,0,0,1-8.57,3,8.84,8.84,0,0,1-3.47-.68,6.64,6.64,0,0,1-2.75-2.16h0a9.21,9.21,0,0,1-1.63-5.73,17.69,17.69,0,0,1,1.34-6.67,23,23,0,0,1,3.93-6.28,21.79,21.79,0,0,1,5.92-5,13.08,13.08,0,0,1,6.37-1.7h0a6.27,6.27,0,0,1,4.14,1.27,4.54,4.54,0,0,1,1.42,3.69,8.08,8.08,0,0,1-1.56,4.64h0a14.74,14.74,0,0,1-4.43,3.91h0a20.05,20.05,0,0,1-4.4,1.94h0a34,34,0,0,1-5.56,1.21h0l-.33,0a11.57,11.57,0,0,0-.55,3.14Zm1.47-6.21.93-.26a13.69,13.69,0,0,0,5.38-2.74,11.45,11.45,0,0,0,3.22-4.61,5.59,5.59,0,0,0,.27-.89h0a3.58,3.58,0,0,0,.09-.77h0a1.75,1.75,0,0,0-.31-1.2h0a1.44,1.44,0,0,0-1-.31,4.32,4.32,0,0,0-2.51,1.18,18.07,18.07,0,0,0-3.11,3.62h0c-.47.67-.89,1.32-1.25,2a15.4,15.4,0,0,0-.89,1.9h0c-.14.33-.3.75-.48,1.25l-.29.87Zm49.63,8.7c-.53.67-1,1.25-1.47,1.76h0a14.65,14.65,0,0,1-1.94,1.87h0a12.42,12.42,0,0,1-3.06,1.73,9.17,9.17,0,0,1-3.2.58h0a5.51,5.51,0,0,1-2.66-.65,5.61,5.61,0,0,1-2-1.85v0a8.59,8.59,0,0,1-1.12-2.37,9.62,9.62,0,0,1-.39-2.67,15.13,15.13,0,0,1,.32-3.16,19.85,19.85,0,0,1,1-3.33,27.32,27.32,0,0,1,3.12-5.83h0a26.27,26.27,0,0,1,4.36-4.77,23.83,23.83,0,0,1,2-1.52,17.71,17.71,0,0,1,2.18-1.18,9.77,9.77,0,0,1,2.05-.71,10.13,10.13,0,0,1,2.12-.24h0a5.5,5.5,0,0,1,2.26.46,4.88,4.88,0,0,1,1.79,1.32l0,0h0l.21-.69.13-.41h5.43l-.23.75-.61,2.06h0L314.33,827h0l-2.14,7.94h0l-1,4.18c-.12.52-.22,1-.29,1.44h0a7.35,7.35,0,0,0-.1,1.05,1.06,1.06,0,0,0,0,.22l.13,0h0c1.15-.56,2.87-2.76,3.64-3.74h0l.43-.56.47.52.89,1,.34.36-.31.4a35.83,35.83,0,0,1-3.58,4c-1.47,1.35-3.11,2.41-4.68,2.43h0c-2.39-.07-3-1.66-2.95-3.59a13,13,0,0,1,.35-2.35Zm-9.59-2a4.75,4.75,0,0,0,.74,2.82h0a2.46,2.46,0,0,0,2,.91,5.11,5.11,0,0,0,3.16-1.37,17.47,17.47,0,0,0,3.46-4.33c.37-.62.72-1.28,1.07-2s.67-1.51,1-2.35h0c.26-.67.51-1.38.75-2.12s.48-1.51.68-2.26a18.59,18.59,0,0,0,.47-2.14,11.17,11.17,0,0,0,.16-1.84,3.16,3.16,0,0,0-.18-1.09h0a2.67,2.67,0,0,0-.52-.89,2.11,2.11,0,0,0-.75-.56h0a2.56,2.56,0,0,0-1-.22h0a4.51,4.51,0,0,0-2,.49,8.76,8.76,0,0,0-2.23,1.52h0a11.39,11.39,0,0,0-1.6,1.71,16.26,16.26,0,0,0-1.41,2.12v0c-.38.66-.76,1.37-1.12,2.11h0c-.35.73-.69,1.49-1,2.27h0a23.7,23.7,0,0,0-1.29,3.8v0a14.78,14.78,0,0,0-.43,3.39Zm51.63-15.43c.27-.32.53-.61.79-.89a13,13,0,0,1,3.74-3,8.61,8.61,0,0,1,4.07-1h0a6.79,6.79,0,0,1,1.48.17,8,8,0,0,1,1.46.47h0a6.3,6.3,0,0,1,3.12,2.88,10.24,10.24,0,0,1,1.06,4.83h0a16.88,16.88,0,0,1-1.57,7,24,24,0,0,1-4.62,6.58h0a25.94,25.94,0,0,1-3.44,3,20.49,20.49,0,0,1-3.7,2.16h0a11.41,11.41,0,0,1-2.65.86,14.68,14.68,0,0,1-2.92.29h0a12.46,12.46,0,0,1-4-.62,8.74,8.74,0,0,1-3.14-1.84l0-.05-.38-.41v0a1.33,1.33,0,0,1-.25-.42,1,1,0,0,1-.07-.52v-.06l.14-.59h0l.45-1.78h0l7.43-27c.11-.42.2-.82.26-1.18a8.8,8.8,0,0,0,.1-.9l0-.27a.73.73,0,0,0-.34-.26,3.42,3.42,0,0,0-1.13-.2l-1.64,0h-.81l.26-.76.38-1.1.11-.33.34-.06,9.25-1.59.9-.16-.24.89-4.35,15.91Zm-4.91,19v.26a1.08,1.08,0,0,0,.38.86,2.37,2.37,0,0,0,1.35.41H345c2.14,0,4.19-1.13,6.19-3.39h0a23.78,23.78,0,0,0,2.51-3.43,24.55,24.55,0,0,0,1.94-4,22.5,22.5,0,0,0,1-3.42,15.62,15.62,0,0,0,.36-3.1,4.66,4.66,0,0,0-.87-2.93,3,3,0,0,0-2.31-1q-2.29,0-5.08,3.49h0a19,19,0,0,0-1.84,2.68,20.28,20.28,0,0,0-1.39,3.07l-1.25,3.57h0c-.54,1.66-.95,3.06-1.22,4.21a12.58,12.58,0,0,0-.39,2.62Zm28-6.27c-.1.4-.17.79-.23,1.16a8,8,0,0,0-.07,1.08h0a3.77,3.77,0,0,0,0,.68,2.67,2.67,0,0,0,.16.6v0a3.56,3.56,0,0,0,.37.82h0a4,4,0,0,0,.6.72l0,0a3.82,3.82,0,0,0,1.42,1,5.32,5.32,0,0,0,1.9.34h0a7,7,0,0,0,1.48-.13,5.85,5.85,0,0,0,1.32-.44h0a9.77,9.77,0,0,0,1.25-.63c.44-.26.93-.56,1.44-.92l1.54-1.06.63-.48.42-.32.37.4.81.88.39.44-.43.39-1.27,1.13h0l-1.16,1-1.18.91a17.07,17.07,0,0,1-4.07,2.31,11.06,11.06,0,0,1-4,.79h0a8.84,8.84,0,0,1-2-.18h0a7.83,7.83,0,0,1-1.77-.59,7.32,7.32,0,0,1-3.46-3,9.42,9.42,0,0,1-1.12-4.84,17.68,17.68,0,0,1,1.33-6.67,23,23,0,0,1,3.93-6.28,22.09,22.09,0,0,1,5.92-5,13.14,13.14,0,0,1,6.37-1.7h0a6.32,6.32,0,0,1,4.16,1.28,4.52,4.52,0,0,1,1.41,3.68,8.07,8.07,0,0,1-1.55,4.64h0a14.53,14.53,0,0,1-4.44,3.91v0a20.53,20.53,0,0,1-4.4,1.93h0a33.76,33.76,0,0,1-5.56,1.21h0l-.33,0-.24.91h0Zm1.17-4,.93-.25a13.71,13.71,0,0,0,5.37-2.74,11.45,11.45,0,0,0,3.22-4.61,4.78,4.78,0,0,0,.28-.89h0a3.54,3.54,0,0,0,.08-.77h0a1.8,1.8,0,0,0-.32-1.2h0a1.41,1.41,0,0,0-1-.31,4.35,4.35,0,0,0-2.51,1.18,18.4,18.4,0,0,0-3.1,3.62h0a21.18,21.18,0,0,0-1.25,2,15.4,15.4,0,0,0-.89,1.9h0c-.14.33-.31.76-.49,1.3h0l-.27.81ZM389.56,821l.41-1.36.08-.32.32-.09a15.15,15.15,0,0,0,2.67-1,10.24,10.24,0,0,0,2.1-1.4h0c.4-.32.8-.69,1.2-1.06s.8-.78,1.19-1.2h0l2-2.19.19-.19h1.91l-.18.73-1.4,5.53h4.46l-.15.71-.49,2.14-.11.46h-4.56l-4.78,17.32-.22,1.22h0l-.2,1.07a1.23,1.23,0,0,0,0,.29h0l0,.07,0,0a3,3,0,0,0,.65-.45,12.83,12.83,0,0,0,1.57-1.61q.36-.42.69-.87h0c.22-.29.43-.57.61-.85l.3-.44.31-.48.48.31,1.08.67.51.31-.34.5-.69,1.05h0l-1.58,2.15h0c-.3.38-.61.74-.93,1.09h0c-.32.33-.64.66-1,.94a7.64,7.64,0,0,1-2.1,1.42,6.1,6.1,0,0,1-2.34.5h0a3.17,3.17,0,0,1-2.44-.93h0a3.67,3.67,0,0,1-.83-2.56,5.89,5.89,0,0,1,.09-.84,8.32,8.32,0,0,1,.23-1h0l.9-3.49h0l4.27-15.41h-4.22l.22-.75Zm15.26,0,.4-1.36.09-.32.31-.09a15,15,0,0,0,2.68-1,10.52,10.52,0,0,0,2.1-1.4h0c.39-.32.8-.69,1.2-1.06s.8-.78,1.19-1.2h0l2-2.19.17-.19h1.92l-.18.73-1.4,5.53h4.47l-.17.71-.49,2.14-.09.46h-4.56l-4.78,17.32-.24,1.22h0l-.21,1.07a2,2,0,0,0,0,.29h0v.07l0,0a3.21,3.21,0,0,0,.67-.45,12.91,12.91,0,0,0,1.55-1.61c.24-.28.47-.57.7-.87h0c.22-.29.43-.57.61-.85l.31-.44.3-.48.49.31,1.07.67.5.31-.33.5-.69,1.05h0l-1.59,2.15h0c-.29.38-.6.74-.92,1.09h0c-.32.33-.63.66-.94.94a7.49,7.49,0,0,1-2.1,1.42,6.1,6.1,0,0,1-2.34.5h0a3.23,3.23,0,0,1-2.44-.93h0a3.76,3.76,0,0,1-.82-2.56,7.54,7.54,0,0,1,.08-.84c.06-.29.13-.63.24-1h0l.91-3.49h0l4.27-15.41H404.6l.22-.75Zm20.76,14.35c-.1.4-.17.79-.23,1.16a10.11,10.11,0,0,0-.07,1.08h0a3.77,3.77,0,0,0,0,.68,3.33,3.33,0,0,0,.16.6l0,0a3.15,3.15,0,0,0,.36.82h0a5,5,0,0,0,.6.72l0,0a3.82,3.82,0,0,0,1.42,1,5.36,5.36,0,0,0,1.9.34h0a7.09,7.09,0,0,0,1.48-.13,6.4,6.4,0,0,0,1.32-.44h0a9.77,9.77,0,0,0,1.25-.63c.45-.26.93-.56,1.44-.92l1.55-1.06.63-.48.43-.32.35.4.81.88.4.44-.45.39-1.25,1.13h0c-.38.33-.78.66-1.18,1s-.77.61-1.16.91a17.13,17.13,0,0,1-4.08,2.31,11,11,0,0,1-4,.79h0a9,9,0,0,1-2-.18h0a7.67,7.67,0,0,1-1.77-.59,7.3,7.3,0,0,1-3.45-3,9.52,9.52,0,0,1-1.14-4.84,17.7,17.7,0,0,1,1.35-6.67,22.81,22.81,0,0,1,3.93-6.28,21.9,21.9,0,0,1,5.91-5,13.11,13.11,0,0,1,6.37-1.7h0a6.32,6.32,0,0,1,4.15,1.28,4.55,4.55,0,0,1,1.42,3.68,8,8,0,0,1-1.57,4.64h0a14.37,14.37,0,0,1-4.43,3.91v0a21,21,0,0,1-4.4,1.93h0a34.12,34.12,0,0,1-5.57,1.21h0l-.33,0-.25.9Zm1.17-4,.93-.25a13.58,13.58,0,0,0,5.37-2.74,11.57,11.57,0,0,0,3.23-4.61,8.88,8.88,0,0,0,.27-.89h0a4.29,4.29,0,0,0,.08-.77h0a1.7,1.7,0,0,0-.31-1.2h0a1.39,1.39,0,0,0-1-.31,4.35,4.35,0,0,0-2.52,1.18,18.4,18.4,0,0,0-3.11,3.62h0c-.47.67-.88,1.32-1.24,2a15.5,15.5,0,0,0-.9,1.9h0c-.14.33-.29.76-.49,1.3h0l-.27.81Zm18.56,6.91,2.52-9.09,1.28-5.08c.06-.29.12-.57.16-.83s.06-.48.07-.67l-.07-.56a.41.41,0,0,0-.18-.15,3.31,3.31,0,0,0-1-.24l-1.27-.07h-1.57l.24-.76.34-1.1.11-.34.35-.06,9.12-1.6.91-.16-.24.89L454.3,825l1.48-2.18h0a17.26,17.26,0,0,1,3.3-3.73,5.42,5.42,0,0,1,3.26-1.36h0a3.24,3.24,0,0,1,2.44,1,4.23,4.23,0,0,1,.91,2.66v0a5.2,5.2,0,0,1-.2,1.46h0a2.67,2.67,0,0,1-.63,1.11h0a3.64,3.64,0,0,1-1.16.85,2.76,2.76,0,0,1-1.3.27h0a2.59,2.59,0,0,1-2.37-1.2l-.53-.65-.3.21L458,824.71a25,25,0,0,0-1.73,2.34q-.9,1.32-1.77,2.91c-.32.59-.64,1.22-.95,1.88s-.58,1.33-.87,2h0c-.34.83-.68,1.7-1,2.6s-.58,1.69-.82,2.52h0L449,844.94l-.14.41h-5.58l.23-.75,1.82-6.28Zm58.95-20.47.82.48.27.16,0,.29,1.71,19.57,1-1.4h0c.48-.67,1-1.44,1.66-2.32l2.74-4h0c.31-.46.61-.95.88-1.43h0a17.49,17.49,0,0,0,.81-1.56h0c.15-.33.28-.65.39-.93s.18-.51.23-.73l.08-.81a2.48,2.48,0,0,0-.1-.68h0a2.36,2.36,0,0,0-.29-.65l-.53-.74h0a5.11,5.11,0,0,1-.68-1.18h0a3.61,3.61,0,0,1-.26-1.21h0a2.59,2.59,0,0,1,2.79-3h0a2.47,2.47,0,0,1,1.44.4h0a3.28,3.28,0,0,1,1.05,1.15l0,0a7.21,7.21,0,0,1,.5,1.28h0a8,8,0,0,1,.18,1.39v.06l-.11,1.26v0a15.59,15.59,0,0,1-.6,2.35,18.33,18.33,0,0,1-1,2.34h0a79.47,79.47,0,0,1-5.08,8c-2,2.78-4.31,5.73-7,8.81h0l-.85,1-.31.35-.41-.23-.83-.45-.26-.15,0-.31-1.69-17.31-10.47,18-.29.49-.49-.28-.83-.45-.29-.18V845l0-1.15c-.06-1.89-.11-3.47-.16-4.72s-.09-2.17-.14-2.74h0l-.7-7.15h0c-.1-1.12-.23-2.17-.38-3.14s-.29-1.86-.45-2.65a2.45,2.45,0,0,0-.87-1.38,2.93,2.93,0,0,0-1.75-.48h-1.78v-2.16l.45-.09,6-1.28,1-.21h0l.51-.1.21,0,.18,0,.32.14.14.13.1.15.19.34.07.14.21.88v0l.9,5.8h0c.13,1.05.27,2.09.39,3.12s.22,2,.31,3h0l.26,3.69,10-17.22.3-.51.49.31Zm14.81,19a16.34,16.34,0,0,1,.67-4.59,19.07,19.07,0,0,1,2-4.43,25.51,25.51,0,0,1,2.75-3.83,21.79,21.79,0,0,1,3.28-3,17.66,17.66,0,0,1,4.26-2.38,12.7,12.7,0,0,1,4.38-.81h0a9.23,9.23,0,0,1,3.57.68h0a8.94,8.94,0,0,1,2.95,2,8.19,8.19,0,0,1,1.81,2.89,11.28,11.28,0,0,1,.61,3.72h0a15.91,15.91,0,0,1-.73,4.51,20.37,20.37,0,0,1-2,4.5,25.74,25.74,0,0,1-2.75,3.79,22.13,22.13,0,0,1-3.24,3,16,16,0,0,1-4.17,2.36,12.36,12.36,0,0,1-4.33.79h0a11.19,11.19,0,0,1-2.28-.2,8.35,8.35,0,0,1-2-.68,7.35,7.35,0,0,1-3.54-3.16h0a10.58,10.58,0,0,1-1.17-5.18Zm6.26,1.45a6.29,6.29,0,0,0,.87,3.44,3.38,3.38,0,0,0,1.23,1.13,3.48,3.48,0,0,0,1.62.34h0a5.22,5.22,0,0,0,3.34-1.29,13.65,13.65,0,0,0,3.14-4.15h0a30.2,30.2,0,0,0,2.6-6.22,22.85,22.85,0,0,0,.91-6,6.69,6.69,0,0,0-.88-3.74,2.78,2.78,0,0,0-2.41-1.13h0a6.1,6.1,0,0,0-3.9,1.74,17.32,17.32,0,0,0-3.66,5.24,30.94,30.94,0,0,0-2.17,5.63h0a19.28,19.28,0,0,0-.7,5Zm23.69,0,2.53-9.09,1.27-5.08c.07-.29.12-.57.16-.83a4.49,4.49,0,0,0,.07-.67l-.07-.56a.32.32,0,0,0-.17-.15,3.48,3.48,0,0,0-1-.24l-1.27-.07H549l.24-.76.35-1.1.11-.34.35-.06,9.12-1.6.91-.16-.24.89L558,825l1.47-2.18h0a17.26,17.26,0,0,1,3.3-3.73,5.47,5.47,0,0,1,3.25-1.36h0a3.25,3.25,0,0,1,2.45,1,4.18,4.18,0,0,1,.91,2.66v0a5.18,5.18,0,0,1-.21,1.46,2.47,2.47,0,0,1-.63,1.11h0a3.75,3.75,0,0,1-1.16.85,2.8,2.8,0,0,1-1.31.27h0a2.57,2.57,0,0,1-2.36-1.2l-.53-.65-.31.21-1.2,1.21a25,25,0,0,0-1.74,2.34c-.59.88-1.18,1.85-1.76,2.91-.32.59-.65,1.22-1,1.88s-.59,1.33-.87,2h0c-.33.83-.67,1.7-1,2.6s-.58,1.69-.83,2.52h0l-1.89,5.93-.12.41H547l.21-.75,1.83-6.28Zm27.44-25.64c.12-.5.23-.92.29-1.27h0a4.33,4.33,0,0,0,.09-.78l0-.27a1,1,0,0,0-.34-.26,3.36,3.36,0,0,0-1.12-.2l-1.48,0h-.81l.27-.76.39-1.1.1-.33.34,0,9.06-1.59.9-.16-.24.88-8.71,32h0c-.18.68-.32,1.24-.4,1.69h0a6.38,6.38,0,0,0-.13.9l.09.38,0,.05h0a1.37,1.37,0,0,0,.55-.24h0a9.28,9.28,0,0,0,1.17-.92l1.34-1.38,1.06-1.28.48-.58.34-.41.44.31,1.07.74.49.34-.34.48-.81,1.13h0c-.32.45-.65.89-1,1.31h0c-.31.39-.65.79-1,1.19h0a12.93,12.93,0,0,1-3,2.62,6,6,0,0,1-3,.93h0a4.82,4.82,0,0,1-1.46-.19h0a3.44,3.44,0,0,1-1.22-.66h0a3.54,3.54,0,0,1-.87-1.2h0a3.3,3.3,0,0,1-.26-1.44,6.74,6.74,0,0,1,.06-1,9.83,9.83,0,0,1,.2-1l1-3.84h0l6.41-24Zm1.38,26.61h0ZM598,840.84l-.87,1,0,0a16.39,16.39,0,0,1-4,3.1h0a9,9,0,0,1-4,1.1h0a5.74,5.74,0,0,1-1.32-.12,5.09,5.09,0,0,1-1.18-.38,5.49,5.49,0,0,1-2-1.35,6.43,6.43,0,0,1-1.25-2.14,9.48,9.48,0,0,1-.53-1.85,9.72,9.72,0,0,1-.17-1.94h0a16.45,16.45,0,0,1,1.33-6.38A31.08,31.08,0,0,1,594,819.71h0a10.28,10.28,0,0,1,5.74-1.94h0a5.57,5.57,0,0,1,2.27.47,4.43,4.43,0,0,1,1.52,1.11l2-7.08h0a9.59,9.59,0,0,0,.25-1h0a5.79,5.79,0,0,0,.07-.76l0-.23a.63.63,0,0,0-.29-.18,3.84,3.84,0,0,0-1.18-.16l-1.69,0h-.79l.25-.76.38-1.1.11-.33.35-.06,9.23-1.59.9-.16-.24.89-8.88,31.88-.28,1.19h0a7.92,7.92,0,0,0-.15.84h0a6.4,6.4,0,0,0-.05.73.89.89,0,0,0,.06.37h0v0l.17,0a.47.47,0,0,0,.17,0,1.6,1.6,0,0,0,.23-.16l1.38-1.38,1.69-1.76.5-.57.4-.46.44.42,1,.94.39.38-.35.41-.57.67h0a27.39,27.39,0,0,1-4.46,4.33,6.32,6.32,0,0,1-3.73,1.47,2.78,2.78,0,0,1-2.17-.94,3.86,3.86,0,0,1-.78-2.46v-.1l.19-1.5v0l0-.19Zm-9-2.4a3.92,3.92,0,0,0,.16,1.35,3.26,3.26,0,0,0,.51,1h0a2.85,2.85,0,0,0,.92.75h0a2.76,2.76,0,0,0,1.17.26h0a3.92,3.92,0,0,0,2.33-.8h0a11.67,11.67,0,0,0,2.65-2.72h0a23.26,23.26,0,0,0,1.82-2.85A23.55,23.55,0,0,0,600,832.4h0a31.53,31.53,0,0,0,1.48-4.67,21.5,21.5,0,0,0,.52-4.2h0a3.56,3.56,0,0,0-.54-2.24,2,2,0,0,0-1.66-.65h0a4.16,4.16,0,0,0-2.45,1,15.44,15.44,0,0,0-3,3.22h0a28.9,28.9,0,0,0-2,3.12,30.3,30.3,0,0,0-1.65,3.39v0a21.89,21.89,0,0,0-.82,2.3,18.92,18.92,0,0,0-.53,2.29h0c-.09.48-.16.95-.2,1.36a9,9,0,0,0,0,1.12v0Z"/>
      <path class="cls-2"
            d="M69.72,733.65l1.63-.34a8.88,8.88,0,0,0,2.51-.91h0a3.72,3.72,0,0,0,1.38-1.27l0,0a8.23,8.23,0,0,0,.78-1.26,8,8,0,0,0,.52-1.3h0l2-6.79L90.2,680.63l.53-2.15h0c.07-.36.12-.72.16-1.05a8.27,8.27,0,0,0,0-1q0-2.52-4.34-3.21L84.39,673l-.68-.08.18-.66.67-2.46.12-.43h26.37l-.18.73-.62,2.46-.1.35-.36.07-1.86.38h0a6.74,6.74,0,0,0-3.06,1.42,6.25,6.25,0,0,0-1.8,2.72v0c-.34.89-.69,1.86-1,2.9s-.66,2.13-1,3.27h0L89.3,725.08h0a26.77,26.77,0,0,0-.68,2.77,8.71,8.71,0,0,0-.19,1.95v0a2.7,2.7,0,0,0,1,2.33A7.28,7.28,0,0,0,93,733.45l1.89.19.67.07-.16.65-.62,2.45-.12.45H68.47l.18-.72.62-2.46.09-.36.36-.07Zm20.48-53h0Zm16.45,42.52,3.27-11.45,2.91-11.77c.15-.64.26-1.19.34-1.67h0a10.72,10.72,0,0,0,.13-1.21,2.21,2.21,0,0,0-.51-1.46h0a2.31,2.31,0,0,0-1.43-.65l-2.31-.14H106.8L107,694l.63-2,.1-.34.35-.05,16.37-2.86.92-.15-.27.89-4.84,16.62,2.47-3.54h0a51,51,0,0,1,9.52-10.37c3.06-2.35,5.92-3.5,8.61-3.45h0a6.87,6.87,0,0,1,4.68,1.76,7.44,7.44,0,0,1,2,4.71v0l0,1.07v.06l-.1,1.25v0l-.48,3.06v.06l-.87,3.45v0l-5.79,21.1h0l-1.2,4.79,0,.67.09.6a.54.54,0,0,0,.13.33h0a.56.56,0,0,0,.35,0h0a4.3,4.3,0,0,0,2.17-1.1,24.31,24.31,0,0,0,3.31-3.38l2.15-2.68.34-.42.44.3,1.69,1.15.48.33-.33.48-2.11,3.08h0q-.74,1-1.5,2h0a21.44,21.44,0,0,1-1.55,1.73c-.51.52-1.06,1-1.61,1.49s-1.17.92-1.78,1.34-1,.63-1.44.89h0a11.24,11.24,0,0,1-1.45.69,8,8,0,0,1-1.75.63h0a5.84,5.84,0,0,1-1.7.14,4.77,4.77,0,0,1-3.81-1.5,6.57,6.57,0,0,1-1.38-4.26h0a9.25,9.25,0,0,1,0-1.65,16.61,16.61,0,0,1,.31-1.85c.23-1.23.46-2.4.7-3.5h0c.23-1.08.49-2.1.76-3h0L137,704.07l.71-3.24h0c.13-.64.23-1.22.29-1.75h0a14.75,14.75,0,0,0,.12-1.5l-.16-1.11a1.59,1.59,0,0,0-.46-.76,1.17,1.17,0,0,0-.74-.23,6.9,6.9,0,0,0-3.06,1.14,20.29,20.29,0,0,0-3.74,3.17l-2.63,3c-1.14,1.48-2.25,3.05-3.34,4.69s-2.14,3.33-3.17,5.11h0c-.68,1.14-1.27,2.22-1.78,3.23s-.95,2-1.29,2.85l-1.91,5.64-4,12.52-.13.4h-9l.2-.74,3.74-13.36h0Zm11-4.45v0Zm39.18,3.17.39,1.87h0c.13.69.29,1.36.46,2s.39,1.32.61,1.91v0a10.13,10.13,0,0,0,3.1,5,7.66,7.66,0,0,0,5.1,1.57h0a6.24,6.24,0,0,0,2.6-.45,5.7,5.7,0,0,0,2.07-1.47,7.09,7.09,0,0,0,1.4-2.24,8.78,8.78,0,0,0,.53-2.75h0a9.48,9.48,0,0,0-.14-1.62,9.31,9.31,0,0,0-.43-1.48c-.33-.77-.74-1.6-1.2-2.45s-1-1.79-1.64-2.74l-4.5-7c-.64-1-1.22-1.93-1.73-2.85a29.38,29.38,0,0,1-1.3-2.66,12.36,12.36,0,0,1-.88-2.72,13.56,13.56,0,0,1-.26-2.95v0a11.24,11.24,0,0,1,.19-2.32h0a11,11,0,0,1,.66-2.23,9.88,9.88,0,0,1,1-1.89,10,10,0,0,1,1.33-1.66,11.89,11.89,0,0,1,1.94-1.74,12.14,12.14,0,0,1,2.36-1.27,14.85,14.85,0,0,1,2.57-.77,13.94,13.94,0,0,1,2.66-.25h0a22.8,22.8,0,0,1,2.58.21,23.66,23.66,0,0,1,2.68.55h0q1.65.46,2.76.69a9.76,9.76,0,0,0,1.68.22h0a3.25,3.25,0,0,0,1.1-.22h0a1.93,1.93,0,0,0,.76-.56l.58-.68.17-.21h2.4l-.11.66-2.16,14.45-.09.58-.58-.08-1.91-.29-.42-.07-.07-.42-.34-2.06h0a11.85,11.85,0,0,0-2.78-6.43A7.38,7.38,0,0,0,174.6,693h0a4.25,4.25,0,0,0-3.37,1.18,6.06,6.06,0,0,0-1.21,4,9.1,9.1,0,0,0,.82,3.6,25.85,25.85,0,0,0,2.63,4.68h0l4.65,6.91h0c.62.94,1.16,1.79,1.6,2.53h0c.46.78.84,1.47,1.13,2.06v0a13.47,13.47,0,0,1,.91,2.86,16.75,16.75,0,0,1,.33,3.23h0a13.73,13.73,0,0,1-4.8,10.61,14.48,14.48,0,0,1-4.89,2.86,18.5,18.5,0,0,1-6,1h0a16.7,16.7,0,0,1-2.56-.12,18.72,18.72,0,0,1-2.46-.47h0c-1.36-.3-2.47-.55-3.31-.7h0c-.82-.16-1.38-.26-1.67-.28a2.09,2.09,0,0,0-.46,0h0a.61.61,0,0,0-.24.07l-.53.35-.61.86-.17.24h-2.68l.08-.65,2.06-16.32.08-.6.61.1,1.91.35.39.06.08.4Zm23.47,33.39a9,9,0,0,0,3.68-.93,4.4,4.4,0,0,0,2-2.08h0a22.09,22.09,0,0,0,1.06-2.85c.38-1.19.77-2.62,1.16-4.23h0l11.37-45.26c.12-.54.22-1,.29-1.53a10.83,10.83,0,0,0,.13-1.29h0a2.15,2.15,0,0,0-.49-1.46,2.24,2.24,0,0,0-1.43-.66l-2.3-.14h-2.23l.24-.77.62-2,.11-.34.35-.05,16.31-2.86.92-.16-.26.9-2,7.09a23.66,23.66,0,0,1,5.8-5.16,17.47,17.47,0,0,1,9.19-2.68h0a10.82,10.82,0,0,1,3.29.61,12.91,12.91,0,0,1,3.07,1.61,12.08,12.08,0,0,1,2.53,2.4,10.41,10.41,0,0,1,1.59,2.93,19.35,19.35,0,0,1,.82,3.23,22.56,22.56,0,0,1,.31,3.44h0a34.88,34.88,0,0,1-2.34,12.56,38.06,38.06,0,0,1-6.88,11.19,35.94,35.94,0,0,1-4.63,4.52,38.28,38.28,0,0,1-5.42,3.64,31.2,31.2,0,0,1-6.31,2.69,21.81,21.81,0,0,1-6.07.89h0a10.5,10.5,0,0,1-2.27-.18,9.77,9.77,0,0,1-2.09-.65h0l-1.19-.57L197.13,745h0q-.84,3-1.24,5a13.46,13.46,0,0,0-.38,2.61v0a2,2,0,0,0,1.3,1.77,12.42,12.42,0,0,0,4.75.89l.71,0-.17.69-.48,2-.11.45H179.17l.17-.72.48-2,.1-.42.42,0Zm21.19-27.4c-.22.82-.4,1.55-.51,2.18h0a8.29,8.29,0,0,0-.14,1.52,2.61,2.61,0,0,0,1,2h0a4.62,4.62,0,0,0,2.83.73,13.08,13.08,0,0,0,5.91-1.44,18.56,18.56,0,0,0,5.45-4.3h0a36.7,36.7,0,0,0,3.94-5.23,41.87,41.87,0,0,0,3.11-6.17h0a45.16,45.16,0,0,0,2.25-7.25,35.13,35.13,0,0,0,.77-6.95,9.15,9.15,0,0,0-1.46-5.57,5.25,5.25,0,0,0-4.2-1.9,12.35,12.35,0,0,0-4.38.9,11.79,11.79,0,0,0-3.7,2.46,15.8,15.8,0,0,0-2.35,2.92,25,25,0,0,0-2,3.87h0c-.57,1.32-1.09,2.65-1.53,4h0c-.46,1.34-.86,2.71-1.21,4.11h0l-3.75,14.09Zm60-.89-.83,1.34v0c-.59.91-1.19,1.78-1.79,2.6s-1.24,1.63-1.9,2.39a16.83,16.83,0,0,1-4.56,3.9,10.3,10.3,0,0,1-5,1.32h0a5.26,5.26,0,0,1-4.38-2,8.5,8.5,0,0,1-1.32-5.38h0a37,37,0,0,1,1.75-9h0L250.07,700a10.44,10.44,0,0,0,.3-1.37,10.22,10.22,0,0,0,.1-1.35h0a2.25,2.25,0,0,0-.45-1.53h0a2.54,2.54,0,0,0-1.48-.75l-2.28-.14h-2.2l.26-.78.68-2,.11-.33.34-.05,16.27-2.86.92-.16-.27.89-10.08,35h0l-1,4h0c-.14.51-.25,1-.32,1.39h0a5.29,5.29,0,0,0-.1,1v0a.94.94,0,0,0,.15.73,1.11,1.11,0,0,0,.75.23h0a2.78,2.78,0,0,0,1.42-.44,8,8,0,0,0,1.73-1.46h0a22.45,22.45,0,0,0,1.58-1.75c.52-.62,1-1.27,1.52-2h0l.72-1,.31-.44.46.29,1.77,1.1.5.3-.3.49Zm-7.08-53c0-4.18,2-6.31,5.73-6.38h0a5.46,5.46,0,0,1,4.12,1.59,6.37,6.37,0,0,1,1.42,4.39h0a7.21,7.21,0,0,1-.39,2.41,6.71,6.71,0,0,1-1.19,2h0a5.1,5.1,0,0,1-1.89,1.39h0a5.63,5.63,0,0,1-2.35.44,5.12,5.12,0,0,1-4.09-1.47h0a4.67,4.67,0,0,1-1-1.79h0a8.5,8.5,0,0,1-.36-2.38h0V674Zm17.91,51.29L276.84,709l2.3-9.09c.12-.54.22-1.06.29-1.53s.11-.9.13-1.29l-.14-1.08a1,1,0,0,0-.56-.57h0a6,6,0,0,0-1.89-.49l-2.32-.14h-2.18l.24-.77.62-2,.11-.34.35-.05,16.33-2.85.91-.16-.25.88-4,14.49.38-.61v0l3.84-5.66h0a30.81,30.81,0,0,1,5.81-6.57,9.31,9.31,0,0,1,5.56-2.34h0a5.33,5.33,0,0,1,4,1.62h0A6.85,6.85,0,0,1,308,694.9v0a9,9,0,0,1-.35,2.48h0a4.39,4.39,0,0,1-1,1.8h0a6.43,6.43,0,0,1-1.94,1.42,5,5,0,0,1-2.15.45h0a4.22,4.22,0,0,1-3.87-2l-1.07-1.31-.16-.07-.22,0-.7.45-2.22,2.25a46.59,46.59,0,0,0-3.15,4.21c-1.06,1.6-2.12,3.36-3.17,5.26-.57,1.06-1.14,2.19-1.7,3.39s-1.06,2.38-1.58,3.69h0c-.62,1.53-1.23,3.08-1.79,4.66s-1.05,3-1.5,4.54h0L278,736.86l-.13.4h-9l.22-.74,3.25-11.26ZM327,727l-.81,1.34v0c-.58.91-1.19,1.78-1.79,2.6s-1.24,1.63-1.89,2.39a17,17,0,0,1-4.57,3.9,10.3,10.3,0,0,1-5,1.32h0a5.26,5.26,0,0,1-4.38-2,8.5,8.5,0,0,1-1.32-5.38h0a36.91,36.91,0,0,1,1.74-9h0L315.58,700a10.44,10.44,0,0,0,.3-1.37,10.22,10.22,0,0,0,.1-1.35h0a2.25,2.25,0,0,0-.45-1.53h0a2.54,2.54,0,0,0-1.48-.75l-2.28-.14h-2.2l.27-.78.67-2,.11-.33.34-.05,16.27-2.86.92-.16-.26.89-10.09,35h0l-1,4h0c-.14.51-.25,1-.32,1.39h0a5.29,5.29,0,0,0-.1,1v0a.94.94,0,0,0,.15.73,1.14,1.14,0,0,0,.76.23h0a2.77,2.77,0,0,0,1.41-.44,7.75,7.75,0,0,0,1.73-1.46h0c.54-.54,1.06-1.12,1.58-1.75s1-1.27,1.52-2h0l.73-1,.31-.44.46.29,1.77,1.1.49.3-.3.49Zm-7.07-53c0-4.18,1.95-6.31,5.73-6.38h0a5.47,5.47,0,0,1,4.12,1.59,6.37,6.37,0,0,1,1.42,4.39h0a7.21,7.21,0,0,1-.39,2.41,6.51,6.51,0,0,1-1.19,2h0a5.1,5.1,0,0,1-1.89,1.39h0a5.6,5.6,0,0,1-2.35.44,5.12,5.12,0,0,1-4.09-1.47h0a4.67,4.67,0,0,1-1-1.79h0a8.5,8.5,0,0,1-.36-2.38h0V674Zm16,49.18,3.27-11.45,2.91-11.77c.15-.64.26-1.19.33-1.67h0a9,9,0,0,0,.14-1.21,2.21,2.21,0,0,0-.51-1.46h0a2.31,2.31,0,0,0-1.43-.65l-2.31-.14h-2.25l.24-.77.62-2,.11-.34.35-.05,16.37-2.86.92-.15-.26.89-4.86,16.62,2.48-3.54h0a50.67,50.67,0,0,1,9.53-10.37q4.56-3.53,8.59-3.45h0a6.87,6.87,0,0,1,4.68,1.76,7.49,7.49,0,0,1,2.05,4.71v0l.05,1.07v.06l-.1,1.25v0l-.48,3.06v.06l-.87,3.45v0l-5.8,21.1h0l-1.2,4.79,0,.67.09.6a.48.48,0,0,0,.14.33h0a.53.53,0,0,0,.34,0h0a4.33,4.33,0,0,0,2.18-1.1,24.32,24.32,0,0,0,3.3-3.38l2.16-2.68.34-.42.44.3,1.68,1.15.49.33-.33.48-2.11,3.08h0c-.49.69-1,1.35-1.49,2h0c-.5.61-1,1.19-1.56,1.73s-1.05,1-1.61,1.49-1.17.92-1.78,1.34-1,.63-1.43.89h0a11.79,11.79,0,0,1-1.44.69,8,8,0,0,1-1.75.63h0a5.88,5.88,0,0,1-1.71.14,4.79,4.79,0,0,1-3.81-1.5,6.51,6.51,0,0,1-1.37-4.26h0a9.25,9.25,0,0,1,0-1.65,14.58,14.58,0,0,1,.31-1.85c.22-1.23.45-2.4.69-3.5h0c.24-1.08.49-2.1.76-3h0l5.17-18.65.72-3.24h0c.12-.64.22-1.22.29-1.75h0c.06-.55.1-1.06.12-1.5l-.16-1.11a1.67,1.67,0,0,0-.46-.76,1.17,1.17,0,0,0-.74-.23,6.9,6.9,0,0,0-3.06,1.14,20.29,20.29,0,0,0-3.74,3.17l-2.63,3c-1.14,1.48-2.25,3.05-3.34,4.69s-2.14,3.33-3.18,5.11h0c-.67,1.14-1.27,2.22-1.78,3.23s-.94,2-1.28,2.85l-1.91,5.64-4,12.52-.13.4h-9l.21-.74L336,723.15ZM347,718.7v0Zm44,13.1a4.85,4.85,0,0,1-1-1.45,4.25,4.25,0,0,1-.39-1.65,6,6,0,0,1,1.26-3.84,14,14,0,0,1,3.93-3.39h0l2-1.19-.38-.19h0a13.25,13.25,0,0,1-5.26-4.94,14,14,0,0,1-1.75-7.15h0a15.29,15.29,0,0,1,1.7-7.17,22,22,0,0,1,5.27-6.53h0a21.17,21.17,0,0,1,6.67-4.06,22.6,22.6,0,0,1,7.8-1.41h0a16.86,16.86,0,0,1,4.46.62,14.53,14.53,0,0,1,3.93,1.78l1.6.93.25.16a5.14,5.14,0,0,0,1.23.31,12,12,0,0,0,2.18.12h4.2v5.59H424l.23,1.14v0c.06.41.11.84.15,1.31s.05,1,.05,1.52a19.78,19.78,0,0,1-1.51,7.79,18.6,18.6,0,0,1-4.53,6.37,19.4,19.4,0,0,1-6.46,4.13,21.81,21.81,0,0,1-7.84,1.4H404l-2.68-.39L399.49,723a5,5,0,0,0-.57.66,3.65,3.65,0,0,0-.4.69l-.07.63a1.48,1.48,0,0,0,.64,1,8,8,0,0,0,2.39,1.21h0l7.09,2.54h0l2.16.91h0a24.37,24.37,0,0,1,3.07,1.71,21,21,0,0,1,2.61,2h0a9.52,9.52,0,0,1,2.36,3.48h0a13.07,13.07,0,0,1,.84,4.62h0a13.12,13.12,0,0,1-1.73,6.82,16.56,16.56,0,0,1-5.29,5.41h0a19.77,19.77,0,0,1-6.22,2.72,28.68,28.68,0,0,1-7.58.88h0a33.32,33.32,0,0,1-5.27-.4,26.69,26.69,0,0,1-4.85-1.22h0a11.06,11.06,0,0,1-2.86-1.36,12.63,12.63,0,0,1-2.51-2.16,9.85,9.85,0,0,1-2.13-3.2,10.39,10.39,0,0,1-.75-3.85v0a11.46,11.46,0,0,1,.79-4.06,10.66,10.66,0,0,1,2.2-3.41,19.61,19.61,0,0,1,2.45-2.25c1-.85,2.3-1.78,3.77-2.78h0l1.94-1.32-.58-.55Zm4.34,2.67c-.73.48-1.42,1-2.08,1.45s-1.39,1.06-2,1.56h0a9.48,9.48,0,0,0-2.68,3.45h0a10.23,10.23,0,0,0-.91,4.39h0a7.26,7.26,0,0,0,1,3.9,8.39,8.39,0,0,0,3.13,2.89h0a14.34,14.34,0,0,0,3.85,1.49,20,20,0,0,0,4.59.54h0a18.79,18.79,0,0,0,4.39-.49h0a12.54,12.54,0,0,0,3.55-1.48h0a9.63,9.63,0,0,0,3.11-3,6.86,6.86,0,0,0,1.07-3.58,5.53,5.53,0,0,0-.77-2.92,8.06,8.06,0,0,0-2.48-2.55h0a19.9,19.9,0,0,0-1.77-1.08h0c-.62-.32-1.25-.62-1.89-.89l-6-2.26h0L397,735.1h0l-1.69-.63Zm3-23.54c0,2.42.47,4.19,1.4,5.33a4.84,4.84,0,0,0,4.14,1.56h0c3.91,0,7.15-3.14,9.74-9.37a22.71,22.71,0,0,0,1.81-8.68h0a8.59,8.59,0,0,0-1.32-5.11,4.37,4.37,0,0,0-3.66-1.63,8.68,8.68,0,0,0-5.05,1.76,15,15,0,0,0-4.12,5.11h0a25.7,25.7,0,0,0-2.22,5.49,21.84,21.84,0,0,0-.73,5.54Zm75.3-21.71,1.57-.34h.1l.87,0h0a2.62,2.62,0,0,1,2,1.07,9.32,9.32,0,0,1,1.46,2.76h0c.39,1,.76,2,1.1,3.07s.69,2,1,3.11c.53,1.67,1.05,3.45,1.54,5.33s1,3.75,1.44,5.8c.56,2.39,1.06,4.71,1.52,7s.85,4.46,1.23,6.65h0l.35,2.3,2.16-4q1.4-2.61,2.3-4.34l3.78-8c.56-1.19,1-2.29,1.43-3.29s.71-1.87.94-2.67h0a5.56,5.56,0,0,0,.2-1,8.06,8.06,0,0,0,.1-1.14l-.13-1.42a2.69,2.69,0,0,0-.51-.94h0a3.8,3.8,0,0,0-1-.79l-1.6-.85h0a4.13,4.13,0,0,1-1.85-1.66,5.62,5.62,0,0,1,.7-5.86,5,5,0,0,1,3.61-1.18h0a6.57,6.57,0,0,1,2.63.64h0a6.12,6.12,0,0,1,2,1.7h0a6.82,6.82,0,0,1,1.18,2.23h0a9.18,9.18,0,0,1,.39,2.68h0q-.06,4-2.89,11.11a168.3,168.3,0,0,1-8.37,17.31c-2.88,5.3-5.73,10.07-8.51,14.33A115.77,115.77,0,0,1,476.3,750h0a34.44,34.44,0,0,1-6.78,6.31,11,11,0,0,1-6.13,2.1h0a6.27,6.27,0,0,1-4.19-1.35,4.71,4.71,0,0,1-1.4-3.78h0v0h0a5.11,5.11,0,0,1,1.22-3.6h0a4.61,4.61,0,0,1,3.49-1.25,5.4,5.4,0,0,1,1.85.34,6.6,6.6,0,0,1,1.71,1l1.67,1.18h0a1.18,1.18,0,0,0,.39.19h0a2.06,2.06,0,0,0,.52.06,3.54,3.54,0,0,0,1.77-.62,11,11,0,0,0,2.16-2c.55-.62,1.11-1.28,1.66-2s1.08-1.33,1.57-2l2.92-4.35,2.18-3.56-.31-2.44h0q-.33-2.5-.83-5.28c-.31-1.86-.68-3.78-1.08-5.75h0q-.75-3.37-1.49-6.48c-.5-2.08-1-4.17-1.59-6.28L473.06,702q-.62-1.8-1.11-3a12.12,12.12,0,0,0-.85-1.78h0a4,4,0,0,0-1.55-1.49h0a6,6,0,0,0-2.42-.71h0l-2.47-.2H462v-3l.46-.1,11.19-2.46Zm34.48,33.27a28.53,28.53,0,0,1,1.2-8.07,33.6,33.6,0,0,1,3.48-7.83,44.18,44.18,0,0,1,4.88-6.78,37.45,37.45,0,0,1,5.8-5.35,30.66,30.66,0,0,1,7.51-4.2,22.47,22.47,0,0,1,7.66-1.44h0a16.79,16.79,0,0,1,6.24,1.18,15.39,15.39,0,0,1,5.12,3.47,13.62,13.62,0,0,1,3.12,5,19,19,0,0,1,1.07,6.5h0a28.43,28.43,0,0,1-1.27,8,36.09,36.09,0,0,1-3.61,8,47.16,47.16,0,0,1-4.86,6.72A39.48,39.48,0,0,1,538.7,733a28.38,28.38,0,0,1-7.34,4.16,21.8,21.8,0,0,1-7.59,1.39h0a18.73,18.73,0,0,1-4-.36,14.23,14.23,0,0,1-3.53-1.18,12.67,12.67,0,0,1-6.1-5.48,18.36,18.36,0,0,1-2.05-9Zm10.3,2.61a11.58,11.58,0,0,0,1.63,6.4,6.57,6.57,0,0,0,2.37,2.17,6.33,6.33,0,0,0,3.12.65h0a9.55,9.55,0,0,0,6.26-2.41,24.41,24.41,0,0,0,5.72-7.56h0a55.09,55.09,0,0,0,4.68-11.23,41.44,41.44,0,0,0,1.66-10.9c0-3.12-.59-5.46-1.68-7a5.35,5.35,0,0,0-4.69-2.2h0a11.27,11.27,0,0,0-7.28,3.22,31.81,31.81,0,0,0-6.66,9.53,56.26,56.26,0,0,0-3.9,10.15,35.89,35.89,0,0,0-1.27,9.16Zm65.43-3c-1.32,2-2.63,3.78-3.91,5.44s-2.65,3.28-4,4.71a22.69,22.69,0,0,1-5.68,4.66,12.32,12.32,0,0,1-5.83,1.62h0a5.76,5.76,0,0,1-2.56-.52h0a6,6,0,0,1-2.07-1.66h0a6,6,0,0,1-1.17-2.13,9.29,9.29,0,0,1-.42-2.68v0a16.12,16.12,0,0,1,.19-2.26c.11-.82.28-1.71.5-2.67h0l1.24-4.81h0l6-21.82h0a14.36,14.36,0,0,0,.36-1.53h0a8.72,8.72,0,0,0,.11-1.27,2.43,2.43,0,0,0-.52-1.57h0a2.07,2.07,0,0,0-1.39-.64l-2.32-.15h-2.25l.27-.77.66-2,.13-.32.33-.06,16.12-2.85.91-.16-.25.88-9.73,36.15c-.33,1.24-.58,2.28-.74,3.08a10,10,0,0,0-.25,1.76,1.52,1.52,0,0,0,.29,1h0a1.18,1.18,0,0,0,.9.3h0a4.4,4.4,0,0,0,2.46-1,17.64,17.64,0,0,0,3.19-3.16l3.63-4.67,3.25-4.5c.68-1,1.37-2.15,2.06-3.31v0c.7-1.17,1.42-2.41,2.14-3.72.83-1.57,1.62-3.15,2.34-4.74s1.4-3.18,2-4.81c.49-1.29,1-2.58,1.4-3.88s.88-2.65,1.28-4l1-3.61.12-.43h9.41l-.2.74-1.54,5.62h0l-3.31,11.6h0c-.77,2.61-1.44,5-2,7.06h0q-.95,3.42-1.56,6h0l-1.44,5.71h0q-.37,1.4-.54,2.4a9.86,9.86,0,0,0-.17,1.64v0a1.47,1.47,0,0,0,.21.82.45.45,0,0,0,.38.19,2.75,2.75,0,0,0,1.33-.62v0a13,13,0,0,0,2.09-2l2.7-3.17,1.29-1.71.35-.48.48.38,1.82,1.43.44.35-.34.46-1.3,1.72h0l-3.43,4.36h0c-.52.62-1,1.22-1.6,1.77s-1.14,1.1-1.73,1.6h0a11.31,11.31,0,0,1-3,2h0a7.72,7.72,0,0,1-3.13.63h0a6.7,6.7,0,0,1-4.47-1.56,5.8,5.8,0,0,1-1.6-4.23h0a12.68,12.68,0,0,1,.1-1.9c.08-.67.21-1.39.38-2.17h0l.92-3.84h0l1.45-5.45-1.84,2.75Zm25.53-27.76.72-2.46.09-.31.32-.09a27.38,27.38,0,0,0,4.88-1.85,18.85,18.85,0,0,0,3.84-2.55h0c.72-.59,1.44-1.23,2.17-1.91s1.44-1.4,2.15-2.17l3.6-3.93.17-.18H630l-.18.72-2.65,10.48h8l-.16.71-.87,3.84-.1.45h-8.14l-8.65,31.39-.44,2.15h0l-.36,2a3.69,3.69,0,0,0,.05.64h0a1,1,0,0,0,.11.3l.26.26.08,0a4,4,0,0,0,1.56-.92,23.43,23.43,0,0,0,2.86-2.95h0c.45-.54.87-1.06,1.25-1.58s.78-1,1.12-1.53h0l.54-.81.31-.46.48.29,1.91,1.2.51.32-.33.5-1.24,1.87,0,0L623,731.63v0c-.53.68-1.08,1.33-1.62,1.91h0c-.55.6-1.11,1.16-1.66,1.66a13.07,13.07,0,0,1-3.64,2.46,10.23,10.23,0,0,1-4,.85h0a5.27,5.27,0,0,1-4-1.52,6.11,6.11,0,0,1-1.34-4.29,7.7,7.7,0,0,1,.13-1.39c.1-.54.23-1.15.4-1.83h0l1.64-6.24h0l7.81-28.17h-7.53l.21-.73Zm43.48,7.11a47.2,47.2,0,0,1,8.95-9.33,14.83,14.83,0,0,1,8.26-3.31h0a7.63,7.63,0,0,1,2.89.63,7.67,7.67,0,0,1,4,4.11,7.52,7.52,0,0,1,.49,2.86v.05l-.25,2.64v0c-.15.92-.31,1.77-.48,2.56s-.36,1.59-.53,2.25h0l-1.48,5-4.75,16.5h0c-.32,1.06-.58,2-.78,2.8h0a18.64,18.64,0,0,0-.38,1.86l-.06.71.1.6a.59.59,0,0,0,.12.35.6.6,0,0,0,.33,0h0a2.76,2.76,0,0,0,1.28-.44h0a9.7,9.7,0,0,0,1.74-1.36c.38-.35.78-.76,1.21-1.21s.85-.92,1.3-1.45h0l2.14-2.68.34-.43.45.3,1.68,1.15.49.33-.33.48-2.11,3.08h0a30.85,30.85,0,0,1-3.14,3.79,22.06,22.06,0,0,1-3.25,2.78,14.84,14.84,0,0,1-3.33,1.71,10.91,10.91,0,0,1-3.37.61h0a4.5,4.5,0,0,1-2.09-.48h0a4.51,4.51,0,0,1-1.61-1.39h0a5.93,5.93,0,0,1-1-1.9,6.38,6.38,0,0,1-.26-2.15,16.52,16.52,0,0,1,.16-2.42,26.86,26.86,0,0,1,.63-2.85h0l1-3.78h0l5.62-20.17c.27-1,.52-1.88.72-2.73h0c.19-.82.35-1.57.46-2.23l.1-.87v-.13h0a2,2,0,0,0-.45-1.43,2.12,2.12,0,0,0-1.47-.5H666a5.24,5.24,0,0,0-2.11.59h0a12.56,12.56,0,0,0-2.6,1.76l-2.55,2.44c-1.49,1.7-2.94,3.48-4.32,5.34s-2.78,3.87-4.08,5.9h0a46.86,46.86,0,0,0-3.6,7.3,93.68,93.68,0,0,0-3.24,9.69h0l-2.41,8.34-.13.42h-9.21l.21-.74,4.69-16.91h0l4.53-16.94,4.26-16h0l1.78-7.29c.22-.87.38-1.65.49-2.31h0a9.85,9.85,0,0,0,.16-1.5l-.08-.65a1.41,1.41,0,0,0-.8-.67,6.5,6.5,0,0,0-2.25-.41l-2.6-.05-.8,0,.25-.76.68-2,.11-.32.34-.07L659,667.78l.89-.16-.23.9L649.48,706l3.37-4.5h0Zm8.45-3.62h0Z"/>
      <path class="cls-3" d="M23.8,777.12H345v4H23.8v-4Zm379.58,0H724.57v4H403.38v-4Z"/>
      <path class="cls-1"
            d="M417.14,558.37c-4.83,2-17.7,8.41-22.57,20.14a64.72,64.72,0,0,0-4.75,31.71c5.07-2.86,17.91-10.64,22.82-18.54,7.06-11.37,5.36-27.68,4.5-33.31Z"/>
      <path class="cls-1"
            d="M419.45,635.61c10.84,6.62,25,4.2,30.11,3-2.6-5.05-10.84-19.23-23.23-24.27-8.63-3.51-23.59-2.23-29.37-1.56a64.82,64.82,0,0,0,22.49,22.83Z"/>
      <path class="cls-1"
            d="M332.23,558.37c4.83,2,17.7,8.41,22.57,20.14a64.72,64.72,0,0,1,4.75,31.71c-5.07-2.86-17.91-10.64-22.82-18.54-7.06-11.37-5.36-27.68-4.5-33.31Z"/>
      <path class="cls-1"
            d="M329.92,635.61c-10.84,6.62-25,4.2-30.11,3,2.61-5.05,10.84-19.23,23.24-24.27,8.62-3.51,23.58-2.23,29.36-1.56a64.64,64.64,0,0,1-22.49,22.83Z"/>
      <path class="cls-2"
            d="M355.52,771.25l.4-1.34.09-.3.31-.09a15.15,15.15,0,0,0,2.6-1,9.93,9.93,0,0,0,2-1.36h0c.38-.32.77-.66,1.16-1h0c.37-.35.75-.73,1.15-1.16l1.95-2.14.18-.19h1.89l-.18.73-1.36,5.37h4.35l-.16.71-.48,2.08-.1.45h-4.44l-4.64,16.83-.23,1.18h0l-.2,1q0,.18,0,.27v.06l0,0a2.78,2.78,0,0,0,.62-.41h0a12.23,12.23,0,0,0,1.52-1.57c.25-.29.47-.57.67-.84h0a9.79,9.79,0,0,0,.59-.82h0l.3-.43.31-.47.48.3,1,.65.51.32-.33.49-.67,1,0,0-1.54,2.09h0c-.29.37-.59.72-.89,1.06s-.61.63-.92.91h0a7.28,7.28,0,0,1-2,1.37h0a6,6,0,0,1-2.28.5h0a3.12,3.12,0,0,1-2.38-.91,3.59,3.59,0,0,1-.81-2.51,5.36,5.36,0,0,1,.08-.81c.05-.3.13-.63.23-1h0l.89-3.4h0l4.14-15h-4.09l.21-.73Zm13.22,15.36a16.22,16.22,0,0,1,.66-4.46,19.12,19.12,0,0,1,1.92-4.32,24.91,24.91,0,0,1,2.68-3.72,20.57,20.57,0,0,1,3.19-2.94,16.63,16.63,0,0,1,4.15-2.32,12.4,12.4,0,0,1,4.25-.8h0a9.39,9.39,0,0,1,3.49.67,8.55,8.55,0,0,1,2.87,1.93v0a7.73,7.73,0,0,1,1.77,2.8,11.27,11.27,0,0,1,.59,3.63h0a16,16,0,0,1-.71,4.39,19.38,19.38,0,0,1-2,4.39,24.09,24.09,0,0,1-2.67,3.68,21.61,21.61,0,0,1-3.16,3,16,16,0,0,1-4,2.3,12.43,12.43,0,0,1-4.22.77h0a11.32,11.32,0,0,1-2.22-.2,8.39,8.39,0,0,1-2-.67,7.17,7.17,0,0,1-3.43-3.08,10.47,10.47,0,0,1-1.14-5Zm6.13,1.41a6.1,6.1,0,0,0,.83,3.34,3.31,3.31,0,0,0,1.19,1.09h0a3.34,3.34,0,0,0,1.58.33h0a5,5,0,0,0,3.23-1.26,12.84,12.84,0,0,0,3.05-4h0a29,29,0,0,0,2.53-6,22.89,22.89,0,0,0,.89-5.86,6.35,6.35,0,0,0-.87-3.63,2.65,2.65,0,0,0-2.33-1.09h0a5.83,5.83,0,0,0-3.77,1.68,17,17,0,0,0-3.56,5.1,29.58,29.58,0,0,0-2.1,5.47,18.62,18.62,0,0,0-.68,4.9Z"/>
    </g>
  </g>
</svg>